<svg id="Group_26133" data-name="Group 26133" xmlns="http://www.w3.org/2000/svg" xmlns:xlink="http://www.w3.org/1999/xlink" width="600" height="600" viewBox="0 0 600 600">
  <defs>
    <clipPath id="clip-path">
      <rect id="Rectangle_18577" data-name="Rectangle 18577" width="600" height="600" fill="none"/>
    </clipPath>
  </defs>
  <g id="Group_26130" data-name="Group 26130">
    <g id="Group_26129" data-name="Group 26129" clip-path="url(#clip-path)">
      <path id="Path_22043" data-name="Path 22043" d="M363.058,173.327l91.993-68.948a301.647,301.647,0,0,0-73.313-66.41L322.6,136.609a186.1,186.1,0,0,1,40.461,36.719" transform="translate(80.177 9.442)" fill="#e4ac2e"/>
      <path id="Path_22044" data-name="Path 22044" d="M143.865,173.334a186.161,186.161,0,0,1,40.455-36.719l-59.142-98.64a301.62,301.62,0,0,0-73.307,66.41Z" transform="translate(12.892 9.444)" fill="#a5a5a5"/>
      <path id="Path_22045" data-name="Path 22045" d="M452.1,98.212l-90.627,70.816a184.41,184.41,0,0,1,24.579,48.88l110.706-31.22A299.024,299.024,0,0,0,452.1,98.212" transform="translate(89.84 24.423)" fill="#00a844"/>
      <path id="Path_22046" data-name="Path 22046" d="M272.674,118.177a183.793,183.793,0,0,1,50.918,19.657L384.7,40.4A298.021,298.021,0,0,0,292.511,4.854Z" transform="translate(67.769 1.207)" fill="#ff3d4d"/>
      <path id="Path_22047" data-name="Path 22047" d="M114.885,255.871a185.449,185.449,0,0,1,5.5-44.839L10.337,177.59A300.4,300.4,0,0,0,0,255.871c0,6.915.255,13.769.715,20.567l114.426-10.847q-.249-4.831-.256-9.72" transform="translate(0 44.163)" fill="#1d7837"/>
      <path id="Path_22048" data-name="Path 22048" d="M118.152,40.409,179.26,137.84a183.8,183.8,0,0,1,50.915-19.66L210.339,4.857a298.006,298.006,0,0,0-92.187,35.552" transform="translate(29.365 1.208)" fill="#a5a5a5"/>
      <path id="Path_22049" data-name="Path 22049" d="M377.364,310.7a185.775,185.775,0,0,1-33.055,43.952l77.06,85.346a301.055,301.055,0,0,0,59.814-79.827Z" transform="translate(85.573 77.264)" fill="#a5a5a5"/>
      <path id="Path_22050" data-name="Path 22050" d="M130.442,310.69,26.624,360.161a301.032,301.032,0,0,0,59.809,79.826l77.06-85.346a185.772,185.772,0,0,1-33.05-43.951" transform="translate(6.617 77.263)" fill="#a5a5a5"/>
      <path id="Path_22051" data-name="Path 22051" d="M390.31,258.74A183.826,183.826,0,0,1,375.5,311.605l102.8,51.569a298.046,298.046,0,0,0,26.72-95.9Z" transform="translate(93.325 64.344)" fill="#ff5f29"/>
      <path id="Path_22052" data-name="Path 22052" d="M300.009,380.316a184.457,184.457,0,0,1-54.149,10.109l-1.171,115a299.091,299.091,0,0,0,98.28-18.377Z" transform="translate(60.814 94.577)" fill="#b8113b"/>
      <path id="Path_22053" data-name="Path 22053" d="M345.7,353.122a185.089,185.089,0,0,1-46.719,29.127l40.761,107.54A300.021,300.021,0,0,0,424.493,436.9Z" transform="translate(74.308 87.815)" fill="#a5a5a5"/>
      <path id="Path_22054" data-name="Path 22054" d="M494.188,177.586,384.142,211.028a185.489,185.489,0,0,1,5.5,44.844q0,4.892-.255,9.721L503.812,276.44c.459-6.8.715-13.653.715-20.568a300.389,300.389,0,0,0-10.339-78.286" transform="translate(95.473 44.162)" fill="#c92639"/>
      <path id="Path_22055" data-name="Path 22055" d="M222.819,116.918a185.477,185.477,0,0,1,54.57,0L299.483,4.067a301.71,301.71,0,0,0-98.758,0Z" transform="translate(49.887 0)" fill="#a5a5a5"/>
      <path id="Path_22056" data-name="Path 22056" d="M254.25,390.425A184.394,184.394,0,0,1,200.1,380.311l-42.96,106.73a299.112,299.112,0,0,0,98.276,18.383Z" transform="translate(39.056 94.576)" fill="#ff8945"/>
      <path id="Path_22057" data-name="Path 22057" d="M130.841,311.6a183.833,183.833,0,0,1-14.806-52.859L1.323,267.276A298.077,298.077,0,0,0,28.04,363.167Z" transform="translate(0.329 64.344)" fill="#a5a5a5"/>
      <path id="Path_22058" data-name="Path 22058" d="M121.435,217.91a184.471,184.471,0,0,1,24.575-48.876L55.383,98.218A299.007,299.007,0,0,0,10.73,186.691Z" transform="translate(2.667 24.425)" fill="#a5a5a5"/>
      <path id="Path_22059" data-name="Path 22059" d="M206.551,382.243a185.075,185.075,0,0,1-46.715-29.129l-78.79,83.774a300.054,300.054,0,0,0,84.744,52.9Z" transform="translate(20.143 87.813)" fill="#a5a5a5"/>
      <path id="Path_22060" data-name="Path 22060" d="M297.124,49.886a2.813,2.813,0,1,1-2.813-2.813,2.814,2.814,0,0,1,2.813,2.813" transform="translate(72.448 11.706)" fill="#fff"/>
      <path id="Path_22061" data-name="Path 22061" d="M295.28,63.816h-1.839a2.15,2.15,0,0,1-2.144-2.143V54.826a2.151,2.151,0,0,1,2.144-2.144h1.839a2.15,2.15,0,0,1,2.142,2.144v6.848a2.149,2.149,0,0,1-2.142,2.143" transform="translate(72.398 13.101)" fill="#fff"/>
      <path id="Path_22062" data-name="Path 22062" d="M300.124,55.086h-10.23a1.2,1.2,0,1,1,0-2.4h10.23a1.2,1.2,0,0,1,0,2.4" transform="translate(71.75 13.101)" fill="#fff"/>
      <path id="Path_22063" data-name="Path 22063" d="M291.094,53.884v8.987a1.2,1.2,0,0,1-2.4,0V53.884a1.2,1.2,0,0,1,2.4,0" transform="translate(71.75 13.101)" fill="#fff"/>
      <path id="Path_22064" data-name="Path 22064" d="M299.288,53.884v8.987a1.2,1.2,0,0,1-2.4,0V53.884a1.2,1.2,0,0,1,2.4,0" transform="translate(73.786 13.101)" fill="#fff"/>
      <path id="Path_22065" data-name="Path 22065" d="M293.7,60.345V72.078a1.2,1.2,0,1,1-2.4,0V60.345a1.2,1.2,0,0,1,2.4,0" transform="translate(72.398 14.708)" fill="#fff"/>
      <path id="Path_22066" data-name="Path 22066" d="M296.682,60.345V72.078a1.2,1.2,0,1,1-2.4,0V60.345a1.2,1.2,0,0,1,2.4,0" transform="translate(73.139 14.708)" fill="#fff"/>
      <path id="Path_22067" data-name="Path 22067" d="M316.351,56.177a1.953,1.953,0,1,1-1.953-1.953,1.952,1.952,0,0,1,1.953,1.953" transform="translate(77.653 13.484)" fill="#fff"/>
      <path id="Path_22068" data-name="Path 22068" d="M315.072,65.849h-1.277a1.493,1.493,0,0,1-1.488-1.488V59.606a1.493,1.493,0,0,1,1.488-1.488h1.277a1.493,1.493,0,0,1,1.488,1.488V64.36a1.493,1.493,0,0,1-1.488,1.488" transform="translate(77.619 14.453)" fill="#fff"/>
      <path id="Path_22069" data-name="Path 22069" d="M318.434,59.787h-7.1a.834.834,0,1,1,0-1.668h7.1a.834.834,0,0,1,0,1.668" transform="translate(77.169 14.453)" fill="#fff"/>
      <path id="Path_22070" data-name="Path 22070" d="M312.165,58.952v6.241a.834.834,0,1,1-1.668,0V58.952a.834.834,0,1,1,1.668,0" transform="translate(77.17 14.453)" fill="#fff"/>
      <path id="Path_22071" data-name="Path 22071" d="M317.854,58.952v6.241a.834.834,0,1,1-1.668,0V58.952a.834.834,0,1,1,1.668,0" transform="translate(78.583 14.453)" fill="#fff"/>
      <path id="Path_22072" data-name="Path 22072" d="M313.974,63.438v8.146a.834.834,0,1,1-1.668,0V63.438a.834.834,0,1,1,1.668,0" transform="translate(77.619 15.568)" fill="#fff"/>
      <path id="Path_22073" data-name="Path 22073" d="M316.044,63.438v8.146a.834.834,0,1,1-1.668,0V63.438a.834.834,0,1,1,1.668,0" transform="translate(78.134 15.568)" fill="#fff"/>
      <path id="Path_22074" data-name="Path 22074" d="M329.2,50.008a2.813,2.813,0,1,1-2.813-2.813,2.814,2.814,0,0,1,2.813,2.813" transform="translate(80.421 11.737)" fill="#fff"/>
      <path id="Path_22075" data-name="Path 22075" d="M329.5,63.938h-6.125V54.948a2.15,2.15,0,0,1,2.143-2.144h1.84a2.15,2.15,0,0,1,2.142,2.144Z" transform="translate(80.371 13.131)" fill="#fff"/>
      <path id="Path_22076" data-name="Path 22076" d="M330.947,63.858h-8.532l1.2-4.845h6.125Z" transform="translate(80.131 14.675)" fill="#fff"/>
      <path id="Path_22077" data-name="Path 22077" d="M331.226,55.208h-8.6a1.2,1.2,0,0,1,0-2.4h8.6a1.2,1.2,0,0,1,0,2.4" transform="translate(79.886 13.131)" fill="#fff"/>
      <path id="Path_22078" data-name="Path 22078" d="M324.111,54.277l-1.594,8.844a1.2,1.2,0,0,1-2.365-.426l1.594-8.844a1.2,1.2,0,1,1,2.365.426" transform="translate(79.564 13.146)" fill="#fff"/>
      <path id="Path_22079" data-name="Path 22079" d="M328.372,54.277l1.6,8.844a1.2,1.2,0,1,0,2.364-.426l-1.593-8.844a1.2,1.2,0,1,0-2.366.426" transform="translate(81.607 13.146)" fill="#fff"/>
      <path id="Path_22080" data-name="Path 22080" d="M325.915,60.467V72.2a1.2,1.2,0,1,1-2.4,0V60.467a1.2,1.2,0,0,1,2.4,0" transform="translate(80.404 14.738)" fill="#fff"/>
      <path id="Path_22081" data-name="Path 22081" d="M328.628,60.467V72.2a1.2,1.2,0,1,1-2.4,0V60.467a1.2,1.2,0,0,1,2.4,0" transform="translate(81.078 14.738)" fill="#fff"/>
      <path id="Path_22082" data-name="Path 22082" d="M306.754,57.259a1.822,1.822,0,1,1-1.822-1.822,1.821,1.821,0,0,1,1.822,1.822" transform="translate(75.334 13.786)" fill="#fff"/>
      <path id="Path_22083" data-name="Path 22083" d="M306.948,66.281h-3.967V60.459a1.392,1.392,0,0,1,1.387-1.389h1.191a1.392,1.392,0,0,1,1.388,1.387Z" transform="translate(75.302 14.69)" fill="#fff"/>
      <path id="Path_22084" data-name="Path 22084" d="M307.883,66.229h-5.526l.779-3.138H307.1Z" transform="translate(75.146 15.69)" fill="#fff"/>
      <path id="Path_22085" data-name="Path 22085" d="M308.064,60.626h-5.57a.778.778,0,0,1,0-1.556h5.57a.778.778,0,0,1,0,1.556" transform="translate(74.987 14.69)" fill="#fff"/>
      <path id="Path_22086" data-name="Path 22086" d="M303.456,60.024l-1.033,5.728a.778.778,0,1,1-1.532-.276l1.033-5.728a.778.778,0,1,1,1.532.276" transform="translate(74.779 14.699)" fill="#fff"/>
      <path id="Path_22087" data-name="Path 22087" d="M306.216,60.024l1.033,5.728a.778.778,0,1,0,1.532-.276l-1.033-5.728a.778.778,0,1,0-1.532.276" transform="translate(76.102 14.699)" fill="#fff"/>
      <path id="Path_22088" data-name="Path 22088" d="M304.624,64.033v7.6a.778.778,0,0,1-1.557,0v-7.6a.778.778,0,0,1,1.557,0" transform="translate(75.323 15.73)" fill="#fff"/>
      <path id="Path_22089" data-name="Path 22089" d="M306.381,64.033v7.6a.778.778,0,1,1-1.556,0v-7.6a.778.778,0,1,1,1.556,0" transform="translate(75.76 15.73)" fill="#fff"/>
      <path id="Path_22090" data-name="Path 22090" d="M389.616,95.357a1.668,1.668,0,0,1,1.631,1.993c-1.375,6.955-9.836,12.309-20.069,12.309s-18.694-5.354-20.069-12.309a1.668,1.668,0,0,1,1.631-1.993Z" transform="translate(87.255 23.713)" fill="#fff"/>
      <path id="Path_22091" data-name="Path 22091" d="M369.306,108.608a34.468,34.468,0,0,1-10.7-1.664v3.075a1.845,1.845,0,0,0,1.839,1.841h17.719A1.845,1.845,0,0,0,380,110.019v-3.075a34.461,34.461,0,0,1-10.7,1.664" transform="translate(89.127 26.595)" fill="#fff"/>
      <path id="Path_22092" data-name="Path 22092" d="M367.413,81.46a5.786,5.786,0,0,1,0,7.028,5.786,5.786,0,0,0,0,7.028" transform="translate(91.02 20.258)" fill="none" stroke="#fff" stroke-linecap="round" stroke-linejoin="round" stroke-width="1.642"/>
      <path id="Path_22093" data-name="Path 22093" d="M359.609,81.46a5.786,5.786,0,0,1,0,7.028,5.786,5.786,0,0,0,0,7.028" transform="translate(89.08 20.258)" fill="none" stroke="#fff" stroke-linecap="round" stroke-linejoin="round" stroke-width="1.642"/>
      <path id="Path_22094" data-name="Path 22094" d="M375.217,81.46a5.786,5.786,0,0,1,0,7.028,5.786,5.786,0,0,0,0,7.028" transform="translate(92.959 20.258)" fill="none" stroke="#fff" stroke-linecap="round" stroke-linejoin="round" stroke-width="1.642"/>
      <path id="Path_22095" data-name="Path 22095" d="M396.492,163.229h8.283l4.06-10.074,8.283,18.4,10.556-24.869,5.36,16.031" transform="translate(98.542 36.478)" fill="none" stroke="#fff" stroke-linecap="round" stroke-linejoin="round" stroke-width="1.642"/>
      <path id="Path_22096" data-name="Path 22096" d="M441.186,156.334a3.276,3.276,0,0,0-6.03-.754,3.277,3.277,0,1,0-5.522,3.509h0l5.153,6.251a.484.484,0,0,0,.747,0l5.151-6.251h0a3.268,3.268,0,0,0,.509-2.755" transform="translate(106.626 38.271)" fill="#fff"/>
      <path id="Path_22097" data-name="Path 22097" d="M417.074,215.791l15.9,3.672v24.515l-15.9-3.674Z" transform="translate(103.658 53.663)" fill="#fff"/>
      <path id="Path_22098" data-name="Path 22098" d="M447.318,215.791l-15.9,3.672v24.515l15.9-3.674Z" transform="translate(107.222 53.663)" fill="#fff"/>
      <path id="Path_22099" data-name="Path 22099" d="M420.827,277.1a12.042,12.042,0,1,0,12.041,12.042A12.041,12.041,0,0,0,420.827,277.1m0,20.54a8.5,8.5,0,1,1,8.5-8.5,8.5,8.5,0,0,1-8.5,8.5" transform="translate(101.598 68.91)" fill="#fff"/>
      <rect id="Rectangle_18512" data-name="Rectangle 18512" width="4.701" height="12.283" transform="translate(520.075 368.216)" fill="#fff"/>
      <path id="Path_22100" data-name="Path 22100" d="M432.03,281.156v-6.151h-6.15v1.455h2.295l-5.911,5.911,2.4,2.4,5.911-5.911v2.3Z" transform="translate(104.948 68.389)" fill="#fff"/>
      <rect id="Rectangle_18513" data-name="Rectangle 18513" width="11.226" height="3.838" transform="translate(516.813 372.438)" fill="#fff"/>
      <rect id="Rectangle_18514" data-name="Rectangle 18514" width="7.964" height="2.436" transform="translate(518.443 354.612)" fill="#fff"/>
      <rect id="Rectangle_18515" data-name="Rectangle 18515" width="7.964" height="2.436" transform="translate(518.443 359.658)" fill="#fff"/>
      <path id="Path_22101" data-name="Path 22101" d="M406.844,390.265h-18.25a1.563,1.563,0,0,1-1.5-1.291l-5.276-24.555a1.556,1.556,0,0,1,1.509-1.852h28.78a1.556,1.556,0,0,1,1.509,1.852l-5.275,24.555A1.563,1.563,0,0,1,406.844,390.265Z" transform="translate(94.888 90.164)" fill="none" stroke="#fff" stroke-width="1"/>
      <path id="Path_22102" data-name="Path 22102" d="M408.457,367.166H385.681c-.76,0-1.387.609-1.262,1.234l3.551,17.69a1.254,1.254,0,0,0,1.252,1.006h15.694a1.254,1.254,0,0,0,1.252-1.006l3.551-17.69c.125-.624-.5-1.234-1.262-1.234M397.069,383.8a4.783,4.783,0,0,1-4.782-4.782c0-2.641,4.782-7.669,4.782-7.669s4.782,5.028,4.782,7.669a4.783,4.783,0,0,1-4.782,4.782" transform="translate(95.538 91.307)" fill="#fff"/>
      <path id="Path_22103" data-name="Path 22103" d="M351.229,399.727a10.788,10.788,0,1,1-10.787-10.789,10.788,10.788,0,0,1,10.787,10.789" transform="translate(81.931 96.722)" fill="#fff"/>
      <path id="Path_22104" data-name="Path 22104" d="M344.511,389.117l.162-3.168a.911.911,0,0,0-1.587-.657l-2.125,2.355a13.363,13.363,0,0,1,3.55,1.47" transform="translate(84.741 95.74)" fill="#fff"/>
      <path id="Path_22105" data-name="Path 22105" d="M328.363,395.651a13.411,13.411,0,0,1,1.47-3.55l-3.166-.162a.912.912,0,0,0-.657,1.587Z" transform="translate(80.95 97.467)" fill="#fff"/>
      <path id="Path_22106" data-name="Path 22106" d="M349.047,395.651l2.354-2.125a.912.912,0,0,0-.657-1.587l-3.168.162a13.372,13.372,0,0,1,1.471,3.55" transform="translate(86.385 97.467)" fill="#fff"/>
      <path id="Path_22107" data-name="Path 22107" d="M336.366,387.647l-2.125-2.354a.911.911,0,0,0-1.587.657l.162,3.168a13.367,13.367,0,0,1,3.55-1.471" transform="translate(82.676 95.74)" fill="#fff"/>
      <path id="Path_22108" data-name="Path 22108" d="M349.047,400.245a13.371,13.371,0,0,1-1.471,3.55l3.168.162a.912.912,0,0,0,.657-1.587Z" transform="translate(86.385 99.533)" fill="#fff"/>
      <path id="Path_22109" data-name="Path 22109" d="M328.363,400.245l-2.353,2.125a.911.911,0,0,0,.657,1.587l3.166-.162a13.41,13.41,0,0,1-1.47-3.55" transform="translate(80.95 99.533)" fill="#fff"/>
      <path id="Path_22110" data-name="Path 22110" d="M340.961,408.33l2.125,2.355a.912.912,0,0,0,1.587-.658l-.162-3.167a13.405,13.405,0,0,1-3.55,1.47" transform="translate(84.741 101.178)" fill="#fff"/>
      <path id="Path_22111" data-name="Path 22111" d="M332.817,406.86l-.162,3.168a.911.911,0,0,0,1.587.657l2.125-2.355a13.364,13.364,0,0,1-3.55-1.47" transform="translate(82.676 101.178)" fill="#fff"/>
      <path id="Path_22112" data-name="Path 22112" d="M278.119,437.926h-3.985a1.686,1.686,0,0,1-1.686-1.684V422.468a1.686,1.686,0,0,1,1.686-1.685h3.985a1.684,1.684,0,0,1,1.684,1.685v13.773a1.684,1.684,0,0,1-1.684,1.684" transform="translate(67.713 104.641)" fill="#fff"/>
      <path id="Path_22113" data-name="Path 22113" d="M285.956,438.794h-3.581a1.888,1.888,0,0,1-1.888-1.887V419.179a1.887,1.887,0,0,1,1.888-1.887h3.581a1.886,1.886,0,0,1,1.887,1.887v17.729a1.887,1.887,0,0,1-1.887,1.887" transform="translate(69.711 103.773)" fill="#fff"/>
      <path id="Path_22114" data-name="Path 22114" d="M293.746,439.992H290.66a2.134,2.134,0,0,1-2.134-2.135V414.609a2.134,2.134,0,0,1,2.135-2.134h3.085a2.135,2.135,0,0,1,2.135,2.134v23.248a2.135,2.135,0,0,1-2.135,2.135" transform="translate(71.709 102.575)" fill="#fff"/>
      <path id="Path_22115" data-name="Path 22115" d="M262.4,436.638H257.7a1.33,1.33,0,0,1-1.331-1.33v-8.017a1.33,1.33,0,0,1,1.331-1.33H262.4a1.33,1.33,0,0,1,1.33,1.33v8.017a1.33,1.33,0,0,1-1.33,1.33" transform="translate(63.718 105.929)" fill="#fff"/>
      <path id="Path_22116" data-name="Path 22116" d="M270.219,437.387h-4.263a1.546,1.546,0,0,1-1.547-1.546V424.5a1.547,1.547,0,0,1,1.547-1.547h4.263a1.546,1.546,0,0,1,1.546,1.547v11.343a1.545,1.545,0,0,1-1.546,1.546" transform="translate(65.715 105.18)" fill="#fff"/>
      <path id="Path_22117" data-name="Path 22117" d="M200.792,409.929l8.544,4.328v10.566l-8.544-4.328Z" transform="translate(49.904 101.942)" fill="#fff"/>
      <path id="Path_22118" data-name="Path 22118" d="M216.178,409.929l-8.544,4.328v10.566l8.544-4.328Z" transform="translate(51.604 101.942)" fill="#fff"/>
      <path id="Path_22119" data-name="Path 22119" d="M209.335,408.762l4.007,2.029-4.007,2.03-4.007-2.03Zm0-2.3-8.544,4.328,8.544,4.328,8.544-4.328Z" transform="translate(49.904 101.08)" fill="#fff"/>
      <path id="Path_22120" data-name="Path 22120" d="M196,425.1l4.444,2.25v5.969L196,431.073Zm-2.05-3.338v10.566l8.544,4.328V426.095Z" transform="translate(48.203 104.886)" fill="#fff"/>
      <path id="Path_22121" data-name="Path 22121" d="M207.285,425.1v5.969l-4.444,2.25v-5.969Zm2.05-3.338-8.544,4.328v10.566l8.544-4.328Z" transform="translate(49.904 104.886)" fill="#fff"/>
      <path id="Path_22122" data-name="Path 22122" d="M202.492,418.3l8.544,4.328-8.544,4.328-8.544-4.328Z" transform="translate(48.203 104.024)" fill="#fff"/>
      <path id="Path_22123" data-name="Path 22123" d="M209.684,425.1l4.444,2.25v5.969l-4.444-2.25Zm-2.05-3.338v10.566l8.544,4.328V426.095Z" transform="translate(51.604 104.886)" fill="#fff"/>
      <path id="Path_22124" data-name="Path 22124" d="M223.021,421.767l-8.544,4.328v10.566l8.544-4.328Z" transform="translate(53.305 104.886)" fill="#fff"/>
      <path id="Path_22125" data-name="Path 22125" d="M216.178,420.6l4.007,2.029-4.007,2.03-4.007-2.03Zm0-2.3-8.544,4.328,8.544,4.328,8.544-4.328Z" transform="translate(51.604 104.024)" fill="#fff"/>
      <rect id="Rectangle_18516" data-name="Rectangle 18516" width="31.8" height="6.17" transform="translate(158.318 487.068)" fill="#fff"/>
      <rect id="Rectangle_18517" data-name="Rectangle 18517" width="31.8" height="6.17" transform="translate(158.318 503.303)" fill="#fff"/>
      <rect id="Rectangle_18518" data-name="Rectangle 18518" width="14.985" height="33.329" transform="translate(91.046 415.114)" fill="#fff"/>
      <rect id="Rectangle_18519" data-name="Rectangle 18519" width="3.356" height="2.532" transform="translate(93.769 417.354)" fill="#a5a5a5"/>
      <rect id="Rectangle_18520" data-name="Rectangle 18520" width="3.356" height="2.532" transform="translate(99.952 417.354)" fill="#a5a5a5"/>
      <rect id="Rectangle_18521" data-name="Rectangle 18521" width="3.356" height="2.532" transform="translate(93.769 420.947)" fill="#a5a5a5"/>
      <rect id="Rectangle_18522" data-name="Rectangle 18522" width="3.356" height="2.532" transform="translate(99.952 420.947)" fill="#a5a5a5"/>
      <rect id="Rectangle_18523" data-name="Rectangle 18523" width="3.356" height="2.532" transform="translate(93.769 424.538)" fill="#a5a5a5"/>
      <rect id="Rectangle_18524" data-name="Rectangle 18524" width="3.356" height="2.532" transform="translate(99.952 424.538)" fill="#a5a5a5"/>
      <rect id="Rectangle_18525" data-name="Rectangle 18525" width="3.356" height="2.532" transform="translate(93.769 428.13)" fill="#a5a5a5"/>
      <rect id="Rectangle_18526" data-name="Rectangle 18526" width="3.356" height="2.532" transform="translate(99.952 428.13)" fill="#a5a5a5"/>
      <rect id="Rectangle_18527" data-name="Rectangle 18527" width="3.356" height="2.532" transform="translate(93.769 431.723)" fill="#a5a5a5"/>
      <rect id="Rectangle_18528" data-name="Rectangle 18528" width="3.356" height="2.532" transform="translate(99.952 431.723)" fill="#a5a5a5"/>
      <rect id="Rectangle_18529" data-name="Rectangle 18529" width="3.356" height="2.532" transform="translate(93.769 435.315)" fill="#a5a5a5"/>
      <rect id="Rectangle_18530" data-name="Rectangle 18530" width="3.356" height="2.532" transform="translate(99.952 435.315)" fill="#a5a5a5"/>
      <rect id="Rectangle_18531" data-name="Rectangle 18531" width="3.356" height="2.532" transform="translate(93.769 438.906)" fill="#a5a5a5"/>
      <rect id="Rectangle_18532" data-name="Rectangle 18532" width="3.356" height="2.532" transform="translate(99.952 438.906)" fill="#a5a5a5"/>
      <rect id="Rectangle_18533" data-name="Rectangle 18533" width="17.262" height="20.588" transform="translate(70.687 427.854)" fill="#fff"/>
      <rect id="Rectangle_18534" data-name="Rectangle 18534" width="6.366" height="1.535" transform="translate(71.981 429.28)" fill="#a5a5a5"/>
      <rect id="Rectangle_18535" data-name="Rectangle 18535" width="6.366" height="1.535" transform="translate(80.288 429.28)" fill="#a5a5a5"/>
      <rect id="Rectangle_18536" data-name="Rectangle 18536" width="6.366" height="1.535" transform="translate(71.981 431.458)" fill="#a5a5a5"/>
      <rect id="Rectangle_18537" data-name="Rectangle 18537" width="6.366" height="1.535" transform="translate(80.288 431.458)" fill="#a5a5a5"/>
      <rect id="Rectangle_18538" data-name="Rectangle 18538" width="6.366" height="1.535" transform="translate(71.981 433.636)" fill="#a5a5a5"/>
      <rect id="Rectangle_18539" data-name="Rectangle 18539" width="6.366" height="1.535" transform="translate(80.288 433.636)" fill="#a5a5a5"/>
      <rect id="Rectangle_18540" data-name="Rectangle 18540" width="6.366" height="1.535" transform="translate(71.981 435.813)" fill="#a5a5a5"/>
      <rect id="Rectangle_18541" data-name="Rectangle 18541" width="6.366" height="1.535" transform="translate(80.288 435.813)" fill="#a5a5a5"/>
      <rect id="Rectangle_18542" data-name="Rectangle 18542" width="6.366" height="1.535" transform="translate(71.981 437.991)" fill="#a5a5a5"/>
      <rect id="Rectangle_18543" data-name="Rectangle 18543" width="6.366" height="1.535" transform="translate(80.288 437.991)" fill="#a5a5a5"/>
      <rect id="Rectangle_18544" data-name="Rectangle 18544" width="6.366" height="1.535" transform="translate(71.981 440.169)" fill="#a5a5a5"/>
      <rect id="Rectangle_18545" data-name="Rectangle 18545" width="6.366" height="1.535" transform="translate(80.288 440.169)" fill="#a5a5a5"/>
      <rect id="Rectangle_18546" data-name="Rectangle 18546" width="6.366" height="1.535" transform="translate(71.981 442.348)" fill="#a5a5a5"/>
      <rect id="Rectangle_18547" data-name="Rectangle 18547" width="6.366" height="1.535" transform="translate(80.288 442.348)" fill="#a5a5a5"/>
      <rect id="Rectangle_18548" data-name="Rectangle 18548" width="19.692" height="25.428" transform="translate(108.892 423.014)" fill="#fff"/>
      <rect id="Rectangle_18549" data-name="Rectangle 18549" width="2.461" height="2.065" transform="translate(110.703 424.744)" fill="#a5a5a5"/>
      <rect id="Rectangle_18550" data-name="Rectangle 18550" width="2.461" height="2.065" transform="translate(115.235 424.744)" fill="#a5a5a5"/>
      <rect id="Rectangle_18551" data-name="Rectangle 18551" width="2.461" height="2.065" transform="translate(110.703 427.673)" fill="#a5a5a5"/>
      <rect id="Rectangle_18552" data-name="Rectangle 18552" width="2.461" height="2.065" transform="translate(115.235 427.673)" fill="#a5a5a5"/>
      <rect id="Rectangle_18553" data-name="Rectangle 18553" width="2.461" height="2.064" transform="translate(110.703 430.603)" fill="#a5a5a5"/>
      <rect id="Rectangle_18554" data-name="Rectangle 18554" width="2.461" height="2.064" transform="translate(115.235 430.603)" fill="#a5a5a5"/>
      <rect id="Rectangle_18555" data-name="Rectangle 18555" width="2.461" height="2.065" transform="translate(110.703 433.531)" fill="#a5a5a5"/>
      <rect id="Rectangle_18556" data-name="Rectangle 18556" width="2.461" height="2.065" transform="translate(115.235 433.531)" fill="#a5a5a5"/>
      <rect id="Rectangle_18557" data-name="Rectangle 18557" width="2.461" height="2.065" transform="translate(110.703 436.46)" fill="#a5a5a5"/>
      <rect id="Rectangle_18558" data-name="Rectangle 18558" width="2.461" height="2.065" transform="translate(115.235 436.46)" fill="#a5a5a5"/>
      <rect id="Rectangle_18559" data-name="Rectangle 18559" width="2.461" height="2.065" transform="translate(110.703 439.388)" fill="#a5a5a5"/>
      <rect id="Rectangle_18560" data-name="Rectangle 18560" width="2.461" height="2.065" transform="translate(115.235 439.388)" fill="#a5a5a5"/>
      <rect id="Rectangle_18561" data-name="Rectangle 18561" width="2.461" height="2.065" transform="translate(110.703 442.318)" fill="#a5a5a5"/>
      <rect id="Rectangle_18562" data-name="Rectangle 18562" width="2.461" height="2.065" transform="translate(115.235 442.318)" fill="#a5a5a5"/>
      <rect id="Rectangle_18563" data-name="Rectangle 18563" width="2.461" height="2.065" transform="translate(119.778 424.744)" fill="#a5a5a5"/>
      <rect id="Rectangle_18564" data-name="Rectangle 18564" width="2.461" height="2.065" transform="translate(124.312 424.744)" fill="#a5a5a5"/>
      <rect id="Rectangle_18565" data-name="Rectangle 18565" width="2.461" height="2.065" transform="translate(119.778 427.673)" fill="#a5a5a5"/>
      <rect id="Rectangle_18566" data-name="Rectangle 18566" width="2.461" height="2.065" transform="translate(124.312 427.673)" fill="#a5a5a5"/>
      <rect id="Rectangle_18567" data-name="Rectangle 18567" width="2.461" height="2.064" transform="translate(119.778 430.603)" fill="#a5a5a5"/>
      <rect id="Rectangle_18568" data-name="Rectangle 18568" width="2.461" height="2.064" transform="translate(124.312 430.603)" fill="#a5a5a5"/>
      <rect id="Rectangle_18569" data-name="Rectangle 18569" width="2.461" height="2.065" transform="translate(119.778 433.531)" fill="#a5a5a5"/>
      <rect id="Rectangle_18570" data-name="Rectangle 18570" width="2.461" height="2.065" transform="translate(124.312 433.531)" fill="#a5a5a5"/>
      <rect id="Rectangle_18571" data-name="Rectangle 18571" width="2.461" height="2.065" transform="translate(119.778 436.46)" fill="#a5a5a5"/>
      <rect id="Rectangle_18572" data-name="Rectangle 18572" width="2.461" height="2.065" transform="translate(124.312 436.46)" fill="#a5a5a5"/>
      <rect id="Rectangle_18573" data-name="Rectangle 18573" width="2.461" height="2.065" transform="translate(119.778 439.388)" fill="#a5a5a5"/>
      <rect id="Rectangle_18574" data-name="Rectangle 18574" width="2.461" height="2.065" transform="translate(124.312 439.388)" fill="#a5a5a5"/>
      <rect id="Rectangle_18575" data-name="Rectangle 18575" width="2.461" height="2.065" transform="translate(119.778 442.318)" fill="#a5a5a5"/>
      <rect id="Rectangle_18576" data-name="Rectangle 18576" width="2.461" height="2.065" transform="translate(124.312 442.318)" fill="#a5a5a5"/>
      <path id="Path_22126" data-name="Path 22126" d="M59.42,273.9a11.107,11.107,0,1,1-3.836,8.4,11.105,11.105,0,1,0-4.3,8.779" transform="translate(8.295 67.439)" fill="none" stroke="#fff" stroke-linecap="round" stroke-linejoin="round" stroke-width="1.642"/>
      <path id="Path_22127" data-name="Path 22127" d="M53.955,276l4.967-1.186a.907.907,0,0,0,.528-1.407L57.24,270.3a.907.907,0,0,0-1.5.036l-2.757,4.3A.907.907,0,0,0,53.955,276" transform="translate(13.131 67.123)" fill="#fff"/>
      <ellipse id="Ellipse_58" data-name="Ellipse 58" cx="15.514" cy="15.516" rx="15.514" ry="15.516" transform="translate(53.056 262.618)" fill="none" stroke="#fff" stroke-linecap="round" stroke-linejoin="round" stroke-width="1.642"/>
      <ellipse id="Ellipse_59" data-name="Ellipse 59" cx="10.782" cy="15.516" rx="10.782" ry="15.516" transform="translate(57.787 262.618)" fill="none" stroke="#fff" stroke-linecap="round" stroke-linejoin="round" stroke-width="1.642"/>
      <path id="Path_22128" data-name="Path 22128" d="M73.523,222.743c0,2.957-6.946,5.354-15.514,5.354s-15.514-2.4-15.514-5.354" transform="translate(10.561 55.392)" fill="none" stroke="#fff" stroke-linecap="round" stroke-linejoin="round" stroke-width="1.642"/>
      <ellipse id="Ellipse_60" data-name="Ellipse 60" cx="4.255" cy="15.516" rx="4.255" ry="15.516" transform="translate(64.315 262.618)" fill="none" stroke="#fff" stroke-linecap="round" stroke-linejoin="round" stroke-width="1.642"/>
      <path id="Path_22129" data-name="Path 22129" d="M81.511,149.54c-5.827,0-10.551,4-10.551,8.941s4.724,8.941,10.551,8.941,10.55-4,10.55-8.941-4.723-8.941-10.55-8.941m2.739,7.938a2.017,2.017,0,1,1,2.016-2.017,2.016,2.016,0,0,1-2.016,2.017" transform="translate(17.636 37.188)" fill="#fff"/>
      <path id="Path_22130" data-name="Path 22130" d="M63.561,158.035,61,164.731c14.994-.778,16.621-6.7,16.621-6.7S76,152.116,61,151.338l2.557,6.7" transform="translate(15.162 37.635)" fill="#fff"/>
      <path id="Path_22131" data-name="Path 22131" d="M56.672,141.979a5.183,5.183,0,0,1,6.294,0,5.184,5.184,0,0,0,6.3,0,5.183,5.183,0,0,1,6.294,0,5.184,5.184,0,0,0,6.3,0,5.183,5.183,0,0,1,6.294,0,5.184,5.184,0,0,0,6.3,0,5.183,5.183,0,0,1,6.294,0" transform="translate(14.085 35.043)" fill="none" stroke="#fff" stroke-linecap="round" stroke-linejoin="round" stroke-width="1.642"/>
      <path id="Path_22132" data-name="Path 22132" d="M56.672,145.861a5.183,5.183,0,0,1,6.294,0,5.184,5.184,0,0,0,6.3,0,5.183,5.183,0,0,1,6.294,0,5.184,5.184,0,0,0,6.3,0,5.183,5.183,0,0,1,6.294,0,5.184,5.184,0,0,0,6.3,0,5.183,5.183,0,0,1,6.294,0" transform="translate(14.085 36.008)" fill="none" stroke="#fff" stroke-linecap="round" stroke-linejoin="round" stroke-width="1.642"/>
      <path id="Path_22133" data-name="Path 22133" d="M127.224,97.067a7.946,7.946,0,1,1-7.946-7.947,7.946,7.946,0,0,1,7.946,7.947" transform="translate(27.67 22.162)" fill="#fff"/>
      <path id="Path_22134" data-name="Path 22134" d="M118.032,103.838a10.4,10.4,0,0,1-1.684-.149v7.882a1.684,1.684,0,1,0,3.369,0v-7.882a10.392,10.392,0,0,1-1.684.149" transform="translate(28.917 25.785)" fill="#fff"/>
      <path id="Path_22135" data-name="Path 22135" d="M111.235,100.945a5.836,5.836,0,1,1-5.836-5.836,5.837,5.837,0,0,1,5.836,5.836" transform="translate(24.745 23.652)" fill="#fff"/>
      <path id="Path_22136" data-name="Path 22136" d="M104.484,105.919a7.777,7.777,0,0,1-1.237-.109V111.6a1.237,1.237,0,1,0,2.475,0V105.81a7.765,7.765,0,0,1-1.237.109" transform="translate(25.661 26.313)" fill="#fff"/>
      <path id="Path_22137" data-name="Path 22137" d="M135.883,102.516a4.962,4.962,0,1,1-4.962-4.962,4.962,4.962,0,0,1,4.962,4.962" transform="translate(31.306 24.26)" fill="#fff"/>
      <path id="Path_22138" data-name="Path 22138" d="M130.143,106.745a6.492,6.492,0,0,1-1.051-.092v4.921a1.052,1.052,0,0,0,2.1,0v-4.921a6.494,6.494,0,0,1-1.053.092" transform="translate(32.084 26.523)" fill="#fff"/>
      <path id="Path_22139" data-name="Path 22139" d="M175.073,70.113s4.914-6.4,11.056-6.262,11.83,9.394,10.806,10.891-2.957-.544-2.957-.544,1.592,2.442.227,3.331-2.958-1.235-2.958-1.235.683,2.4-.682,3.213-5.05-7.761-15.493-4.084" transform="translate(43.512 15.878)" fill="#fff"/>
      <path id="Path_22140" data-name="Path 22140" d="M179.34,70.113s-4.914-6.4-11.056-6.262-11.83,9.394-10.807,10.891,2.958-.544,2.958-.544-1.592,2.442-.227,3.331,2.958-1.235,2.958-1.235-.683,2.4.682,3.213,5.05-7.761,15.493-4.084" transform="translate(39.109 15.878)" fill="#fff"/>
      <path id="Path_22141" data-name="Path 22141" d="M182.98,74.388c-.993,5.414-4.907,9.231-8.741,8.528s-6.137-5.663-5.144-11.076,4.907-9.233,8.741-8.528,6.137,5.662,5.144,11.076" transform="translate(41.969 15.724)" fill="#fff"/>
      <path id="Path_22142" data-name="Path 22142" d="M180.712,63.049a4.694,4.694,0,1,1-4.695-4.7,4.695,4.695,0,0,1,4.695,4.7" transform="translate(42.58 14.512)" fill="#fff"/>
      <path id="Path_22143" data-name="Path 22143" d="M177.4,59.79l4.033.843a.524.524,0,0,1,.187.946L178.068,64Z" transform="translate(44.091 14.869)" fill="#fff"/>
      <path id="Path_22144" data-name="Path 22144" d="M172.517,73.611s-7.681,5.844-7.682,7.809,4.427-.121,4.427-.121-3.776,2.539-3.255,4.429,5.208-2.6,5.208-2.6-1.948,2.491-.713,3.068,7.65-10.209,7.65-10.209" transform="translate(40.967 18.306)" fill="#fff"/>
      <path id="Path_22145" data-name="Path 22145" d="M181.477,64.336s-1.664-3.328-.941-6.18" transform="translate(44.824 14.462)" fill="none" stroke="#fff" stroke-linecap="round" stroke-linejoin="round" stroke-width="0.5"/>
      <path id="Path_22146" data-name="Path 22146" d="M180.661,60.356s-1.355-.32-1.471-.954.946-.835,1.471.954" transform="translate(44.533 14.659)" fill="#fff"/>
      <path id="Path_22147" data-name="Path 22147" d="M180.668,59.335s-1.355-.32-1.471-.954.946-.835,1.471.954" transform="translate(44.535 14.405)" fill="#fff"/>
      <path id="Path_22148" data-name="Path 22148" d="M180.294,60.263s.692-1.207,1.332-1.14.532,1.146-1.332,1.14" transform="translate(44.809 14.702)" fill="#fff"/>
      <path id="Path_22149" data-name="Path 22149" d="M180.294,59.176s.692-1.207,1.332-1.14.532,1.146-1.332,1.14" transform="translate(44.809 14.432)" fill="#fff"/>
      <path id="Path_22150" data-name="Path 22150" d="M180.424,58.787s-.41-1.331.077-1.752,1.715.45-.077,1.752" transform="translate(44.802 14.157)" fill="#fff"/>
      <path id="Path_22151" data-name="Path 22151" d="M251.4,49.547a8.946,8.946,0,1,1-8.947-8.948A8.948,8.948,0,0,1,251.4,49.547Z" transform="translate(58.035 10.096)" fill="none" stroke="#fff" stroke-linecap="round" stroke-linejoin="round" stroke-width="1.642"/>
      <path id="Path_22152" data-name="Path 22152" d="M244.236,54.712a8.946,8.946,0,1,1-8.947-8.948A8.946,8.946,0,0,1,244.236,54.712Z" transform="translate(56.255 11.381)" fill="none" stroke="#fff" stroke-linecap="round" stroke-linejoin="round" stroke-width="1.642"/>
      <path id="Path_22153" data-name="Path 22153" d="M246.651,62.572a8.946,8.946,0,1,1-8.947-8.948A8.947,8.947,0,0,1,246.651,62.572Z" transform="translate(56.854 13.335)" fill="none" stroke="#fff" stroke-linecap="round" stroke-linejoin="round" stroke-width="1.642"/>
      <path id="Path_22154" data-name="Path 22154" d="M240.722,54.712a8.946,8.946,0,1,0,8.947-8.948A8.947,8.947,0,0,0,240.722,54.712Z" transform="translate(59.828 11.381)" fill="none" stroke="#fff" stroke-linecap="round" stroke-linejoin="round" stroke-width="1.642"/>
      <path id="Path_22155" data-name="Path 22155" d="M238.308,62.572a8.946,8.946,0,1,0,8.947-8.948A8.947,8.947,0,0,0,238.308,62.572Z" transform="translate(59.228 13.335)" fill="none" stroke="#fff" stroke-linecap="round" stroke-linejoin="round" stroke-width="1.642"/>
    </g>
  </g>
  <text id="DEVELOPMENT" transform="translate(188.106 297.569)" fill="#009ec7" font-size="29.929" font-family="Lato-Black, Lato" font-weight="800"><tspan x="0" y="0">DEVE</tspan><tspan y="0" letter-spacing="-0.018em">L</tspan><tspan y="0">OPMENT</tspan></text>
  <text id="SUSTAINABLE" transform="translate(187.699 269.74)" fill="#009ec7" font-size="33.491" font-family="Lato-Black, Lato" font-weight="800"><tspan x="0" y="0">SUS</tspan><tspan y="0" letter-spacing="-0.071em">T</tspan><tspan y="0">AINABLE</tspan></text>
  <g id="Group_26132" data-name="Group 26132">
    <g id="Group_26134" data-name="Group 26134">
      <g id="Group_26135" data-name="Group 26135">
        <path id="Path_22156" data-name="Path 22156" d="M157.431,269.3H174.9v20.742a25.821,25.821,0,0,1-8.042,4.014,31.635,31.635,0,0,1-8.919,1.248,30.639,30.639,0,0,1-11.044-1.907,25.421,25.421,0,0,1-8.515-5.26,23.059,23.059,0,0,1-5.462-7.96,25.663,25.663,0,0,1-1.922-10,27.24,27.24,0,0,1,1.82-10.1,22.775,22.775,0,0,1,5.21-7.943,23.653,23.653,0,0,1,8.2-5.193,29.629,29.629,0,0,1,10.74-1.855,31.268,31.268,0,0,1,5.766.506,28.386,28.386,0,0,1,4.974,1.383,22.86,22.86,0,0,1,4.164,2.091,22.5,22.5,0,0,1,3.372,2.631l-3.305,5.025a3.165,3.165,0,0,1-2.006,1.45,3.538,3.538,0,0,1-2.647-.607q-1.349-.81-2.546-1.4a15.546,15.546,0,0,0-2.444-.961,16.009,16.009,0,0,0-2.63-.54,25.65,25.65,0,0,0-3.1-.169,14.149,14.149,0,0,0-5.766,1.131,12.35,12.35,0,0,0-4.367,3.186,14.4,14.4,0,0,0-2.783,4.941,19.9,19.9,0,0,0-.978,6.425,20.662,20.662,0,0,0,1.079,6.947,14.371,14.371,0,0,0,3.052,5.127,13.031,13.031,0,0,0,4.721,3.186,16.268,16.268,0,0,0,6.087,1.1,15.868,15.868,0,0,0,3.727-.4,20.923,20.923,0,0,0,3.254-1.078V277.6h-4.856a2.359,2.359,0,0,1-1.687-.573,1.912,1.912,0,0,1-.606-1.45Z" transform="translate(55.557 57.659)" fill="#009ec7"/>
        <path id="Path_22157" data-name="Path 22157" d="M279.781,294.762h-8.834a3.853,3.853,0,0,1-2.395-.692,4.387,4.387,0,0,1-1.383-1.77l-2.9-8.566H245.588l-2.9,8.566a4.1,4.1,0,0,1-1.333,1.7,3.718,3.718,0,0,1-2.377.759h-8.9l19.019-49.139h11.669Zm-18.108-18.785L257.12,262.52q-.506-1.281-1.079-3.018t-1.146-3.761q-.5,2.058-1.079,3.811t-1.078,3.035l-4.519,13.389Z" transform="translate(55.682 57.66)" fill="#009ec7"/>
        <path id="Path_22158" data-name="Path 22158" d="M313.2,285.655v9.107H283.593V245.623h11.4v40.032Z" transform="translate(55.75 57.66)" fill="#009ec7"/>
        <path id="Path_22159" data-name="Path 22159" d="M346.106,255.607a4.271,4.271,0,0,1-1.063,1.215,2.376,2.376,0,0,1-1.432.4,3.509,3.509,0,0,1-1.669-.489q-.9-.488-2.025-1.1a16.955,16.955,0,0,0-2.579-1.1,10.337,10.337,0,0,0-3.305-.489,7.114,7.114,0,0,0-4.771,1.366,4.649,4.649,0,0,0-1.568,3.693,3.405,3.405,0,0,0,.944,2.462,8.161,8.161,0,0,0,2.478,1.686,26.56,26.56,0,0,0,3.507,1.3q1.974.59,4.03,1.316a36.113,36.113,0,0,1,4.029,1.7,13.45,13.45,0,0,1,3.507,2.5,11.669,11.669,0,0,1,2.479,3.694,13.144,13.144,0,0,1,.943,5.244,17.082,17.082,0,0,1-1.18,6.374,14.917,14.917,0,0,1-3.422,5.176,15.9,15.9,0,0,1-5.53,3.475,20.692,20.692,0,0,1-7.469,1.265,23.955,23.955,0,0,1-4.67-.473,27.887,27.887,0,0,1-4.6-1.332,26.745,26.745,0,0,1-4.181-2.041,17.7,17.7,0,0,1-3.405-2.631l3.371-5.328a3.382,3.382,0,0,1,1.063-.961,2.767,2.767,0,0,1,1.432-.388,3.845,3.845,0,0,1,2.041.641q1.029.64,2.327,1.417a18.893,18.893,0,0,0,2.985,1.416,11.2,11.2,0,0,0,3.979.64,7.577,7.577,0,0,0,4.822-1.365,5.2,5.2,0,0,0,1.72-4.334,4.1,4.1,0,0,0-.944-2.8,7.283,7.283,0,0,0-2.479-1.787,22.77,22.77,0,0,0-3.489-1.248q-1.957-.541-4.013-1.2a29.211,29.211,0,0,1-4.013-1.618,12.608,12.608,0,0,1-3.49-2.529,11.819,11.819,0,0,1-2.478-3.911,15.534,15.534,0,0,1-.944-5.785,13.72,13.72,0,0,1,1.112-5.4,13.926,13.926,0,0,1,3.271-4.687,16.1,16.1,0,0,1,5.295-3.289,19.535,19.535,0,0,1,7.182-1.231,26.794,26.794,0,0,1,4.4.354,23.116,23.116,0,0,1,4.064,1.045,22.249,22.249,0,0,1,3.591,1.652,16.549,16.549,0,0,1,2.984,2.175Z" transform="translate(55.79 57.659)" fill="#009ec7"/>
        <path id="Path_22160" data-name="Path 22160" d="M215.557,261.766l7.669-5.748a25.145,25.145,0,0,0-6.112-5.537l-4.93,8.223a15.529,15.529,0,0,1,3.373,3.061" transform="translate(55.659 57.667)" fill="#e4ac2e"/>
        <path id="Path_22161" data-name="Path 22161" d="M191.711,261.767a15.548,15.548,0,0,1,3.372-3.061l-4.93-8.223a25.161,25.161,0,0,0-6.111,5.537Z" transform="translate(55.624 57.667)" fill="#3ac271"/>
        <path id="Path_22162" data-name="Path 22162" d="M223.782,256.744l-7.556,5.9a15.366,15.366,0,0,1,2.05,4.075l9.229-2.6a24.919,24.919,0,0,0-3.723-7.376" transform="translate(55.665 57.675)" fill="#00a844"/>
        <path id="Path_22163" data-name="Path 22163" d="M206.995,256.486a15.331,15.331,0,0,1,4.244,1.638L216.334,250a24.838,24.838,0,0,0-7.685-2.963Z" transform="translate(55.653 57.662)" fill="#ff3d4d"/>
        <path id="Path_22164" data-name="Path 22164" d="M188.227,271.522a15.438,15.438,0,0,1,.459-3.738L179.511,265a25.048,25.048,0,0,0-.861,6.526c0,.577.021,1.148.059,1.714l9.539-.9q-.021-.4-.021-.81" transform="translate(55.617 57.687)" fill="#1d7837"/>
        <path id="Path_22165" data-name="Path 22165" d="M190.932,250l5.094,8.122a15.334,15.334,0,0,1,4.244-1.639l-1.654-9.447A24.84,24.84,0,0,0,190.932,250" transform="translate(55.632 57.662)" fill="#008bc7"/>
        <path id="Path_22166" data-name="Path 22166" d="M217.2,278.832a15.5,15.5,0,0,1-2.755,3.664l6.424,7.115a25.094,25.094,0,0,0,4.986-6.654Z" transform="translate(55.662 57.706)" fill="#00afdc"/>
        <path id="Path_22167" data-name="Path 22167" d="M190.072,278.832l-8.655,4.125a25.1,25.1,0,0,0,4.986,6.654l6.424-7.115a15.474,15.474,0,0,1-2.755-3.664" transform="translate(55.62 57.706)" fill="#ff9f03"/>
        <path id="Path_22168" data-name="Path 22168" d="M218.919,273.431a15.334,15.334,0,0,1-1.235,4.407l8.57,4.3a24.845,24.845,0,0,0,2.228-7.994Z" transform="translate(55.666 57.698)" fill="#ff5f29"/>
        <path id="Path_22169" data-name="Path 22169" d="M208.7,286.07a15.381,15.381,0,0,1-4.514.843l-.1,9.586a24.939,24.939,0,0,0,8.193-1.532Z" transform="translate(55.649 57.716)" fill="#b8113b"/>
        <path id="Path_22170" data-name="Path 22170" d="M213.625,283.243a15.415,15.415,0,0,1-3.895,2.428l3.4,8.965a25.033,25.033,0,0,0,7.065-4.41Z" transform="translate(55.656 57.712)" fill="#ffb800"/>
        <path id="Path_22171" data-name="Path 22171" d="M227.757,264.995l-9.174,2.788a15.493,15.493,0,0,1,.458,3.738q0,.409-.021.811l9.539.9c.039-.567.06-1.139.06-1.715a25.048,25.048,0,0,0-.862-6.526" transform="translate(55.667 57.687)" fill="#c92639"/>
        <path id="Path_22172" data-name="Path 22172" d="M201.357,256.281a15.457,15.457,0,0,1,4.549,0l1.842-9.408a25.2,25.2,0,0,0-8.233,0Z" transform="translate(55.643 57.661)" fill="#33589c"/>
        <path id="Path_22173" data-name="Path 22173" d="M203.08,286.912a15.375,15.375,0,0,1-4.514-.843l-3.582,8.9a24.94,24.94,0,0,0,8.193,1.533Z" transform="translate(55.638 57.716)" fill="#ff8945"/>
        <path id="Path_22174" data-name="Path 22174" d="M189.585,277.838a15.326,15.326,0,0,1-1.235-4.407l-9.563.712a24.838,24.838,0,0,0,2.228,7.994Z" transform="translate(55.617 57.698)" fill="#e48e16"/>
        <path id="Path_22175" data-name="Path 22175" d="M188.994,266.723a15.4,15.4,0,0,1,2.049-4.075l-7.556-5.9a24.934,24.934,0,0,0-3.722,7.375Z" transform="translate(55.618 57.675)" fill="#009ec7"/>
        <path id="Path_22176" data-name="Path 22176" d="M197.537,285.67a15.41,15.41,0,0,1-3.894-2.428l-6.569,6.984a25.031,25.031,0,0,0,7.065,4.41Z" transform="translate(55.628 57.712)" fill="#ff4fa9"/>
        <rect id="Rectangle_18578" data-name="Rectangle 18578" width="600" height="600" fill="none"/>
      </g>
    </g>
  </g>
  <text id="_01" data-name="01" transform="translate(366.457 89.711)" fill="#fff" font-size="12" font-family="Lato-Bold, Lato" font-weight="700"><tspan x="0" y="0">01</tspan></text>
  <text id="NO" transform="translate(373.457 35.698)" fill="#fff" font-size="7" font-family="Lato-Bold, Lato" font-weight="700"><tspan x="0" y="0">NO</tspan></text>
  <text id="POVERTY" transform="translate(373.457 44.098)" fill="#fff" font-size="7" font-family="Lato-Bold, Lato" font-weight="700"><tspan x="0" y="0">P</tspan><tspan y="0" letter-spacing="-0.023em">O</tspan><tspan y="0">VE</tspan><tspan y="0" letter-spacing="-0.019em">R</tspan><tspan y="0">TY</tspan></text>
  <text id="_02" data-name="02" transform="translate(429.569 151.473)" fill="#fff" font-size="12" font-family="Lato-Bold, Lato" font-weight="700"><tspan x="0" y="0">02</tspan></text>
  <text id="ZERO" transform="translate(457.853 80.512)" fill="#fff" font-size="7" font-family="Lato-Bold, Lato" font-weight="700"><tspan x="0" y="0">ZE</tspan><tspan y="0" letter-spacing="-0.009em">R</tspan><tspan y="0">O</tspan></text>
  <text id="HUNGER" transform="translate(457.853 88.912)" fill="#fff" font-size="7" font-family="Lato-Bold, Lato" font-weight="700"><tspan x="0" y="0">HUNGER</tspan></text>
  <text id="_03" data-name="03" transform="translate(473.853 212.262)" fill="#fff" font-size="12" font-family="Lato-Bold, Lato" font-weight="700"><tspan x="0" y="0">03</tspan></text>
  <text id="GOOD_HEALTH" data-name="GOOD HEALTH" transform="translate(507.139 166.827)" fill="#fff" font-size="7" font-family="Lato-Bold, Lato" font-weight="700"><tspan x="0" y="0">GOOD HEA</tspan><tspan y="0" letter-spacing="-0.089em">L</tspan><tspan y="0">TH</tspan></text>
  <text id="_WELL-BEING" data-name="&amp; WELL-BEING" transform="translate(507.139 177.352)" fill="#fff" font-size="7" font-family="Lato-Bold, Lato" font-weight="700"><tspan x="0" y="0">&amp;</tspan><tspan y="0" letter-spacing="-0.006em"> </tspan><tspan y="0">WEL</tspan><tspan y="0" letter-spacing="-0.066em">L</tspan><tspan y="0">-BEING</tspan></text>
  <text id="_04" data-name="04" transform="translate(514.139 285.952)" fill="#fff" font-size="12" font-family="Lato-Bold, Lato" font-weight="700"><tspan x="0" y="0">04</tspan></text>
  <text id="QUALITY" transform="translate(544.893 251.216)" fill="#fff" font-size="7" font-family="Lato-Bold, Lato" font-weight="700"><tspan x="0" y="0">Q</tspan><tspan y="0" letter-spacing="-0.017em">U</tspan><tspan y="0">ALITY</tspan></text>
  <text id="EDUCATION" transform="translate(544.893 261.74)" fill="#fff" font-size="7" font-family="Lato-Bold, Lato" font-weight="700"><tspan x="0" y="0">EDUC</tspan><tspan y="0" letter-spacing="-0.07em">A</tspan><tspan y="0">TION</tspan></text>
  <text id="_05" data-name="05" transform="translate(507.453 356.759)" fill="#fff" font-size="12" font-family="Lato-Bold, Lato" font-weight="700"><tspan x="0" y="0">05</tspan></text>
  <text id="GENDER" transform="translate(547.122 365.404)" fill="#fff" font-size="7" font-family="Lato-Bold, Lato" font-weight="700"><tspan x="0" y="0">GENDER</tspan></text>
  <text id="EQUALITY" transform="translate(547.122 375.928)" fill="#fff" font-size="7" font-family="Lato-Bold, Lato" font-weight="700"><tspan x="0" y="0" letter-spacing="-0.015em">E</tspan><tspan y="0">Q</tspan><tspan y="0" letter-spacing="-0.017em">U</tspan><tspan y="0">ALITY</tspan></text>
  <text id="_06" data-name="06" transform="translate(454.379 424.7)" fill="#fff" font-size="12" font-family="Lato-Bold, Lato" font-weight="700"><tspan x="0" y="0">06</tspan></text>
  <text id="CLEAN_WATER" data-name="CLEAN WATER" transform="translate(485.139 434.7)" fill="#fff" font-size="7" font-family="Lato-Bold, Lato" font-weight="700"><tspan x="0" y="0">CLEAN</tspan><tspan y="0" letter-spacing="-0.006em"> </tspan><tspan y="0" letter-spacing="-0.047em">W</tspan><tspan y="0" letter-spacing="-0.07em">A</tspan><tspan y="0">TER</tspan></text>
  <text id="AND_SANITATION" data-name="AND SANITATION" transform="translate(485.139 445.225)" fill="#fff" font-size="7" font-family="Lato-Bold, Lato" font-weight="700"><tspan x="0" y="0">AND </tspan><tspan y="0" letter-spacing="-0.014em">S</tspan><tspan y="0">ANI</tspan><tspan y="0" letter-spacing="-0.07em">TA</tspan><tspan y="0">TION</tspan></text>
  <text id="_07" data-name="07" transform="translate(401.758 474.665)" fill="#fff" font-size="12" font-family="Lato-Bold, Lato" font-weight="700"><tspan x="0" y="0">07</tspan></text>
  <text id="AFFORDABLE" transform="translate(415.758 533.264)" fill="#fff" font-size="7" font-family="Lato-Bold, Lato" font-weight="700"><tspan x="0" y="0">AF</tspan><tspan y="0" letter-spacing="-0.006em">F</tspan><tspan y="0">OR</tspan><tspan y="0" letter-spacing="-0.022em">D</tspan><tspan y="0">ABLE</tspan></text>
  <text id="AND_CLEAN" data-name="AND CLEAN" transform="translate(415.758 541.663)" fill="#fff" font-size="7" font-family="Lato-Bold, Lato" font-weight="700"><tspan x="0" y="0">AND CLEAN</tspan></text>
  <text id="ENERGY" transform="translate(415.758 550.063)" fill="#fff" font-size="7" font-family="Lato-Bold, Lato" font-weight="700"><tspan x="0" y="0">ENE</tspan><tspan y="0" letter-spacing="-0.009em">R</tspan><tspan y="0" letter-spacing="-0.019em">G</tspan><tspan y="0">Y</tspan></text>
  <text id="_08" data-name="08" transform="translate(329.534 522.095)" fill="#fff" font-size="12" font-family="Lato-Bold, Lato" font-weight="700"><tspan x="0" y="0">08</tspan></text>
  <text id="DECENT_WORK" data-name="DECENT WORK" transform="translate(321 562.063)" fill="#fff" font-size="7" font-family="Lato-Bold, Lato" font-weight="700"><tspan x="0" y="0">D</tspan><tspan y="0" letter-spacing="-0.015em">E</tspan><tspan y="0">CEN</tspan><tspan y="0" letter-spacing="-0.03em">T</tspan><tspan y="0" letter-spacing="-0.006em"> </tspan><tspan y="0" letter-spacing="-0.014em">W</tspan><tspan y="0">ORK</tspan></text>
  <text id="AND_ECONOMIC" data-name="AND ECONOMIC" transform="translate(321 570.464)" fill="#fff" font-size="7" font-family="Lato-Bold, Lato" font-weight="700"><tspan x="0" y="0">AND </tspan><tspan y="0" letter-spacing="-0.015em">EC</tspan><tspan y="0">ONOMIC</tspan></text>
  <text id="CROWTH" transform="translate(321 578.863)" fill="#fff" font-size="7" font-family="Lato-Bold, Lato" font-weight="700"><tspan x="0" y="0">C</tspan><tspan y="0" letter-spacing="-0.009em">R</tspan><tspan y="0" letter-spacing="-0.014em">O</tspan><tspan y="0">WTH</tspan></text>
  <text id="_09" data-name="09" transform="translate(256.631 520.396)" fill="#fff" font-size="12" font-family="Lato-Bold, Lato" font-weight="700"><tspan x="0" y="0">09</tspan></text>
  <text id="INDUSTRY_" data-name="INDUSTRY," transform="translate(219 561.074)" fill="#fff" font-size="7" font-family="Lato-Bold, Lato" font-weight="700"><tspan x="0" y="0">INDUST</tspan><tspan y="0" letter-spacing="-0.033em">R</tspan><tspan y="0" letter-spacing="-0.079em">Y</tspan><tspan y="0">,</tspan></text>
  <text id="INNOVATION_AND" data-name="INNOVATION AND" transform="translate(219 569.474)" fill="#fff" font-size="7" font-family="Lato-Bold, Lato" font-weight="700"><tspan x="0" y="0">INN</tspan><tspan y="0" letter-spacing="-0.023em">O</tspan><tspan y="0" letter-spacing="-0.057em">V</tspan><tspan y="0" letter-spacing="-0.07em">A</tspan><tspan y="0">TION</tspan><tspan y="0" letter-spacing="-0.033em"> </tspan><tspan y="0">AND</tspan></text>
  <text id="INFRASTRUCTURE" transform="translate(219 577.874)" fill="#fff" font-size="7" font-family="Lato-Bold, Lato" font-weight="700"><tspan x="0" y="0">INFRAST</tspan><tspan y="0" letter-spacing="-0.005em">R</tspan><tspan y="0">UCTURE</tspan></text>
  <text id="_10" data-name="10" transform="translate(183.836 474.024)" fill="#fff" font-size="12" font-family="Lato-Bold, Lato" font-weight="700"><tspan x="0" y="0">10</tspan></text>
  <text id="REDUCED" transform="translate(132.893 524.863)" fill="#fff" font-size="7" font-family="Lato-Bold, Lato" font-weight="700"><tspan x="0" y="0">REDUCED</tspan></text>
  <text id="INEQUALITIES" transform="translate(133.769 533.264)" fill="#fff" font-size="7" font-family="Lato-Bold, Lato" font-weight="700"><tspan x="0" y="0">IN</tspan><tspan y="0" letter-spacing="-0.015em">E</tspan><tspan y="0">Q</tspan><tspan y="0" letter-spacing="-0.017em">U</tspan><tspan y="0">ALITIES</tspan></text>
  <text id="_11" data-name="11" transform="translate(132.891 422.01)" fill="#fff" font-size="12" font-family="Lato-Bold, Lato" font-weight="700"><tspan x="0" y="0">11</tspan></text>
  <text id="SUSTAINABLE-2" data-name="SUSTAINABLE" transform="translate(67.374 461.947)" fill="#fff" font-size="7" font-family="Lato-Bold, Lato" font-weight="700"><tspan x="0" y="0">SUS</tspan><tspan y="0" letter-spacing="-0.07em">T</tspan><tspan y="0">AINABLE</tspan></text>
  <text id="CITIES_AND" data-name="CITIES AND" transform="translate(67.374 472.471)" fill="#fff" font-size="7" font-family="Lato-Bold, Lato" font-weight="700"><tspan x="0" y="0">CITIES</tspan><tspan y="0" letter-spacing="-0.033em"> </tspan><tspan y="0">AND</tspan></text>
  <text id="COMMUNITIES" transform="translate(67.374 482.996)" fill="#fff" font-size="7" font-family="Lato-Bold, Lato" font-weight="700"><tspan x="0" y="0" letter-spacing="-0.015em">C</tspan><tspan y="0">OMMUNITIES</tspan></text>
  <text id="_12" data-name="12" transform="translate(78.374 354.948)" fill="#fff" font-size="12" font-family="Lato-Bold, Lato" font-weight="700"><tspan x="0" y="0">12</tspan></text>
  <text id="RESPONSIBLE" transform="translate(24.722 373.404)" fill="#fff" font-size="7" font-family="Lato-Bold, Lato" font-weight="700"><tspan x="0" y="0">RESPONSIBLE</tspan></text>
  <text id="CONSUMPTION_AND" data-name="CONSUMPTION AND" transform="translate(24.722 383.929)" fill="#fff" font-size="7" font-family="Lato-Bold, Lato" font-weight="700"><tspan x="0" y="0" letter-spacing="-0.015em">C</tspan><tspan y="0">ONSUMPTION</tspan><tspan y="0" letter-spacing="-0.033em"> </tspan><tspan y="0">AND</tspan></text>
  <text id="PRODUCTION" transform="translate(24.722 394.454)" fill="#fff" font-size="7" font-family="Lato-Bold, Lato" font-weight="700"><tspan x="0" y="0">P</tspan><tspan y="0" letter-spacing="-0.01em">R</tspan><tspan y="0">ODUCTION</tspan></text>
  <text id="_13" data-name="13" transform="translate(72.798 284.791)" fill="#fff" font-size="12" font-family="Lato-Bold, Lato" font-weight="700"><tspan x="0" y="0">13</tspan></text>
  <text id="CLIMATE" transform="translate(9.189 277.554)" fill="#fff" font-size="7" font-family="Lato-Bold, Lato" font-weight="700"><tspan x="0" y="0">CLIM</tspan><tspan y="0" letter-spacing="-0.07em">A</tspan><tspan y="0">TE</tspan></text>
  <text id="ACTION" transform="translate(9.189 288.078)" fill="#fff" font-size="7" font-family="Lato-Bold, Lato" font-weight="700"><tspan x="0" y="0" letter-spacing="-0.021em">A</tspan><tspan y="0">CTION</tspan></text>
  <text id="_14" data-name="14" transform="translate(111.744 210.297)" fill="#fff" font-size="12" font-family="Lato-Bold, Lato" font-weight="700"><tspan x="0" y="0">14</tspan></text>
  <text id="LIFE" transform="translate(35.689 178.214)" fill="#fff" font-size="7" font-family="Lato-Bold, Lato" font-weight="700"><tspan x="0" y="0">LIFE</tspan></text>
  <text id="BELLOW" transform="translate(35.689 188.738)" fill="#fff" font-size="7" font-family="Lato-Bold, Lato" font-weight="700"><tspan x="0" y="0">BEL</tspan><tspan y="0" letter-spacing="-0.025em">L</tspan><tspan y="0" letter-spacing="-0.014em">O</tspan><tspan y="0">W</tspan></text>
  <text id="WATER" transform="translate(35.689 199.262)" fill="#fff" font-size="7" font-family="Lato-Bold, Lato" font-weight="700"><tspan x="0" y="0" letter-spacing="-0.047em">W</tspan><tspan y="0" letter-spacing="-0.07em">A</tspan><tspan y="0">TER</tspan></text>
  <text id="_15" data-name="15" transform="translate(155.909 156.827)" fill="#fff" font-size="12" font-family="Lato-Bold, Lato" font-weight="700"><tspan x="0" y="0">15</tspan></text>
  <text id="LIFE_ON_LAND" data-name="LIFE ON LAND" transform="translate(98.259 99.711)" fill="#fff" font-size="7" font-family="Lato-Bold, Lato" font-weight="700"><tspan x="0" y="0">LIFE ON LAND</tspan></text>
  <text id="_16" data-name="16" transform="translate(219.717 117.092)" fill="#fff" font-size="12" font-family="Lato-Bold, Lato" font-weight="700"><tspan x="0" y="0">16</tspan></text>
  <text id="PEACE_JUSTICE" data-name="PEACE, JUSTICE" transform="translate(175.818 42.053)" fill="#fff" font-size="7" font-family="Lato-Bold, Lato" font-weight="700"><tspan x="0" y="0">PE</tspan><tspan y="0" letter-spacing="-0.021em">A</tspan><tspan y="0">CE,</tspan><tspan y="0" letter-spacing="-0.028em"> </tspan><tspan y="0">JUSTICE</tspan></text>
  <text id="AND_STRONG" data-name="AND STRONG" transform="translate(175.374 50.453)" fill="#fff" font-size="7" font-family="Lato-Bold, Lato" font-weight="700"><tspan x="0" y="0">AND ST</tspan><tspan y="0" letter-spacing="-0.009em">R</tspan><tspan y="0">ONG</tspan></text>
  <text id="INSTITUTIONS" transform="translate(175.55 58.852)" fill="#fff" font-size="7" font-family="Lato-Bold, Lato" font-weight="700"><tspan x="0" y="0">INSTITUTIONS</tspan></text>
  <text id="_17" data-name="17" transform="translate(293.514 85.512)" fill="#fff" font-size="12" font-family="Lato-Bold, Lato" font-weight="700"><tspan x="0" y="0">17</tspan></text>
  <text id="PARTNERSHIPS" transform="translate(273.862 23.298)" fill="#fff" font-size="7" font-family="Lato-Bold, Lato" font-weight="700"><tspan x="0" y="0" letter-spacing="-0.05em">P</tspan><tspan y="0">A</tspan><tspan y="0" letter-spacing="-0.018em">R</tspan><tspan y="0">TNERSHIPS</tspan></text>
  <text id="FORTHE_GOALS" data-name="FORTHE GOALS" transform="translate(274.138 31.698)" fill="#fff" font-size="7" font-family="Lato-Bold, Lato" font-weight="700"><tspan x="0" y="0" letter-spacing="-0.006em">F</tspan><tspan y="0">O</tspan><tspan y="0" letter-spacing="-0.018em">R</tspan><tspan y="0">THE G</tspan><tspan y="0" letter-spacing="-0.021em">O</tspan><tspan y="0">ALS</tspan></text>
</svg>
