<svg xmlns="http://www.w3.org/2000/svg" width="234" height="225.893" viewBox="0 0 234 225.893">
  <g id="Group_26066" data-name="Group 26066" opacity="0.2">
    <g id="Group_26059" data-name="Group 26059" transform="translate(26.824 134.781)">
      <path id="Path_21939" data-name="Path 21939" d="M57.716,4.174c-8,0-20.809,6.483-32.809,17.289C8.881,35.892.367,52.564,5.892,58.7c1.388,1.542,3.528,2.271,6.21,2.271,8,0,20.809-6.486,32.809-17.289,16.026-14.429,24.54-31.1,19.017-37.236C62.54,4.9,60.4,4.171,57.716,4.174m0-4.174c4.977,0,7.81,1.984,9.312,3.651,8.4,9.329-3.364,28.761-19.326,43.131C35.126,58.109,21.485,65.142,12.1,65.142c-4.978,0-7.812-1.984-9.312-3.651-8.4-9.329,3.364-28.761,19.326-43.131C34.692,7.037,48.334,0,57.716,0Z" transform="translate(0 0)" fill="#0a51a1"/>
      <path id="Path_21940" data-name="Path 21940" d="M49.018,4.173c-7.8,0-20.419,9.5-30.961,24.011C5.383,45.63.519,63.706,7.2,68.559a6.78,6.78,0,0,0,4.084,1.207c7.793,0,20.419-9.5,30.959-24.011C54.919,28.31,59.783,10.233,53.1,5.381a6.766,6.766,0,0,0-4.084-1.207m0-4.173a10.873,10.873,0,0,1,6.538,2c4.727,3.436,5.938,10.512,3.406,19.927-2.181,8.1-6.917,17.44-13.341,26.279C34.264,63.84,20.786,73.94,11.284,73.94a10.874,10.874,0,0,1-6.539-2c-10.155-7.379-2.69-28.83,9.936-46.206C26.036,10.1,39.514,0,49.018,0Z" transform="translate(16.313 6.004)" fill="#0a51a1"/>
      <path id="Path_21941" data-name="Path 21941" d="M38.484,4.173c-7.718,0-19.145,12.47-27,30.113C2.712,53.988,1.716,72.68,9.259,76.038a6.167,6.167,0,0,0,2.537.52c7.718,0,19.145-12.467,27-30.11,8.773-19.7,9.769-38.4,2.226-41.754a6.171,6.171,0,0,0-2.537-.52m0-4.173a10.322,10.322,0,0,1,4.232.882c11.469,5.105,8.625,27.642-.109,47.263C35.387,64.366,23.059,80.732,11.8,80.732a10.346,10.346,0,0,1-4.235-.879c-11.469-5.108-8.625-27.642.112-47.263C14.893,16.371,27.221,0,38.487,0Z" transform="translate(34.788 10.381)" fill="#0a51a1"/>
    </g>
    <g id="Group_26060" data-name="Group 26060" transform="translate(0 90.222)">
      <path id="Path_21942" data-name="Path 21942" d="M34.242,4.174c-16.627,0-29.317,4.5-30.035,11.341-.862,8.21,15.823,16.694,37.272,18.947a100,100,0,0,0,10.361.554c16.627,0,29.315-4.493,30.035-11.341C82.737,15.467,66.049,6.984,44.6,4.727a99.972,99.972,0,0,0-10.361-.554m0-4.174a103.463,103.463,0,0,1,10.8.579C55.907,1.72,66.013,4.443,73.5,8.25c8.689,4.416,13.138,10.05,12.526,15.862-.963,9.16-14.379,15.078-34.183,15.078a104.244,104.244,0,0,1-10.8-.576c-10.868-1.144-20.973-3.867-28.457-7.671C3.9,26.524-.554,20.89.055,15.077,1.018,5.918,14.437,0,34.242,0Z" transform="translate(0 0)" fill="#01a0c6"/>
      <path id="Path_21943" data-name="Path 21943" d="M51.84,4.173a99.2,99.2,0,0,0-10.361.554C20.03,6.981,3.344,15.464,4.207,23.674c.721,6.845,13.405,11.341,30.035,11.341A100.03,100.03,0,0,0,44.6,34.461c21.446-2.256,38.134-10.74,37.272-18.95C81.154,8.667,68.467,4.173,51.84,4.173M51.84,0c19.8,0,33.221,5.918,34.183,15.077.612,5.812-3.837,11.447-12.526,15.862-7.484,3.806-17.59,6.53-28.458,7.671a103.465,103.465,0,0,1-10.8.579c-19.8,0-33.223-5.918-34.186-15.077C-.554,18.3,3.9,12.665,12.584,8.247c7.484-3.8,17.589-6.528,28.457-7.671A104.186,104.186,0,0,1,51.84,0Z" transform="translate(0 15.548)" fill="#01a0c6"/>
      <path id="Path_21944" data-name="Path 21944" d="M62.115,4.173A83.993,83.993,0,0,0,37,8.6C16.491,15.269,1.934,27.036,4.486,34.887c1.411,4.346,7.768,6.58,16.641,6.58a83.989,83.989,0,0,0,25.113-4.429c20.511-6.664,35.068-18.433,32.517-26.285-1.411-4.346-7.765-6.58-16.641-6.58m0-4.173C73.426,0,80.743,3.361,82.726,9.466c1.806,5.556-1.374,11.994-8.956,18.121-6.527,5.278-15.848,10.044-26.24,13.419a88.69,88.69,0,0,1-26.4,4.635C9.819,45.641,2.5,42.28.515,36.176c-3.879-11.939,14.771-24.9,35.2-31.54A88.8,88.8,0,0,1,62.118,0Z" transform="translate(4.651 27.528)" fill="#01a0c6"/>
      <path id="Path_21945" data-name="Path 21945" d="M62.924,4.173c-8.071,0-19.774,3.684-31.551,10.484C12.695,25.439.9,39.976,5.03,47.127c1.525,2.64,5.008,3.9,9.738,3.9,8.071,0,19.774-3.681,31.552-10.481C65,29.765,76.791,15.228,72.662,8.08c-1.525-2.643-5.008-3.906-9.738-3.906m0-4.173C71.1,0,74.7,3.258,76.277,5.993,79.2,11.054,77.425,18.01,71.282,25.58,66,32.1,57.869,38.7,48.406,44.164,36.431,51.077,23.855,55.2,14.768,55.2c-8.177,0-11.774-3.258-13.352-5.99-6.277-10.874,9.268-27.431,27.87-38.171C41.261,4.129,53.837,0,62.924,0Z" transform="translate(13.75 36.949)" fill="#01a0c6"/>
    </g>
    <g id="Group_26061" data-name="Group 26061" transform="translate(4.651 20.456)">
      <path id="Path_21946" data-name="Path 21946" d="M11.284,4.174A6.8,6.8,0,0,0,7.2,5.378C.519,10.233,5.383,28.31,18.057,45.755,28.6,60.265,41.222,69.767,49.018,69.767A6.784,6.784,0,0,0,53.1,68.559c6.68-4.852,1.817-22.929-10.859-40.374C31.7,13.675,19.077,4.171,11.284,4.174m0-4.174c9.5,0,22.979,10.1,34.336,25.731C52.045,34.57,56.781,43.9,58.962,52.01c2.532,9.415,1.322,16.491-3.406,19.927a10.873,10.873,0,0,1-6.538,2c-9.5,0-22.979-10.1-34.337-25.731C2.055,30.834-5.41,9.382,4.746,2a10.869,10.869,0,0,1,6.539-2Z" transform="translate(38.486 0)" fill="#018d54"/>
      <path id="Path_21947" data-name="Path 21947" d="M12.1,4.173c-2.682,0-4.824.729-6.21,2.27C.367,12.579,8.881,29.25,24.907,43.679c12,10.807,24.813,17.289,32.809,17.289,2.682,0,4.824-.729,6.213-2.27,5.523-6.135-2.991-22.806-19.017-37.236C32.911,10.656,20.1,4.171,12.1,4.173m0-4.173c9.379,0,23.021,7.033,35.6,18.36,15.962,14.371,27.723,33.8,19.326,43.131-1.5,1.667-4.335,3.65-9.315,3.65-9.379,0-23.021-7.034-35.6-18.36C6.154,32.408-5.61,12.979,2.79,3.65,4.29,1.984,7.125,0,12.106,0Z" transform="translate(22.173 14.802)" fill="#018d54"/>
      <path id="Path_21948" data-name="Path 21948" d="M14.768,4.173c-4.73,0-8.213,1.263-9.738,3.9C.9,15.228,12.695,29.762,31.373,40.547c11.778,6.8,23.48,10.484,31.551,10.484,4.727,0,8.213-1.266,9.738-3.906C76.791,39.976,65,25.439,46.32,14.654,34.542,7.854,22.839,4.171,14.768,4.173m0-4.173c9.09,0,21.663,4.126,33.638,11.04C57.869,16.5,66,23.1,71.282,29.623c6.143,7.571,7.916,14.527,4.994,19.587C74.7,51.946,71.1,55.2,62.924,55.2c-9.087,0-21.663-4.129-33.638-11.043-18.6-10.74-34.147-27.3-27.87-38.17C2.993,3.258,6.591,0,14.768,0Z" transform="translate(9.099 32.35)" fill="#018d54"/>
      <path id="Path_21949" data-name="Path 21949" d="M21.127,4.173c-8.873,0-15.23,2.234-16.641,6.58C1.934,18.605,16.491,30.372,37,37.035a83.931,83.931,0,0,0,25.113,4.432c8.873,0,15.23-2.237,16.641-6.58C81.307,27.036,66.751,15.267,46.239,8.6A83.991,83.991,0,0,0,21.127,4.173m0-4.173a88.773,88.773,0,0,1,26.4,4.633C57.923,8.01,67.243,12.776,73.77,18.055c7.582,6.127,10.762,12.562,8.956,18.121-1.984,6.1-9.3,9.465-20.611,9.465a88.81,88.81,0,0,1-26.4-4.635C15.286,34.37-3.364,21.4.515,9.463,2.5,3.361,9.819,0,21.127,0Z" transform="translate(0 51.334)" fill="#018d54"/>
    </g>
    <g id="Group_26062" data-name="Group 26062" transform="translate(61.612 0)">
      <path id="Path_21950" data-name="Path 21950" d="M19.123,4.173c-8.258,0-14.949,17.484-14.949,39.05S10.865,82.27,19.123,82.27,34.069,64.789,34.069,43.223,27.378,4.173,19.123,4.173m0-4.173c12.554,0,19.12,21.744,19.12,43.223s-6.566,43.22-19.12,43.22S0,64.7,0,43.223,6.569,0,19.123,0Z" transform="translate(36.266)" fill="#99cf16"/>
      <path id="Path_21951" data-name="Path 21951" d="M14.013,4.173a5.849,5.849,0,0,0-1.227.128C4.709,6.018,1.8,24.509,6.281,45.605c4.26,20.035,13.658,35.216,21.51,35.216a5.876,5.876,0,0,0,1.23-.131c8.077-1.717,10.987-20.208,6.505-41.3C31.266,19.351,21.864,4.173,14.013,4.173m0-4.173C25.971,0,35.662,19.969,39.607,38.521c4.466,21.009,2.56,43.641-9.719,46.253a10.179,10.179,0,0,1-2.1.22C15.835,84.994,6.142,65.026,2.2,46.473-2.266,25.464-.363,2.83,11.918.22a10.156,10.156,0,0,1,2.1-.22Z" transform="translate(19.023 2.351)" fill="#99cf16"/>
      <path id="Path_21952" data-name="Path 21952" d="M11.8,4.174a6.171,6.171,0,0,0-2.538.52c-7.543,3.358-6.547,22.05,2.226,41.751,7.854,17.643,19.281,30.11,27,30.11a6.173,6.173,0,0,0,2.537-.52c7.543-3.356,6.547-22.05-2.226-41.751-7.854-17.643-19.281-30.11-27-30.11M11.8,0C23.059,0,35.387,16.366,42.61,32.586c8.734,19.621,11.577,42.158.109,47.263a10.335,10.335,0,0,1-4.234.879c-11.263,0-23.591-16.365-30.812-32.586C-1.064,28.521-3.907,5.985,7.561.879A10.342,10.342,0,0,1,11.8,0Z" transform="translate(0 9.287)" fill="#99cf16"/>
      <path id="Path_21953" data-name="Path 21953" d="M27.792,4.173c-7.852,0-17.253,15.18-21.51,35.216C1.8,60.482,4.71,78.973,12.784,80.69a5.9,5.9,0,0,0,1.23.131c7.852,0,17.25-15.18,21.51-35.216,4.482-21.1,1.572-39.587-6.5-41.3a5.894,5.894,0,0,0-1.23-.128M27.8,0A10.193,10.193,0,0,1,29.89.22c12.278,2.61,14.181,25.244,9.716,46.253C35.663,65.026,25.972,84.994,14.014,84.994a10.18,10.18,0,0,1-2.1-.22C-.362,82.162-2.268,59.53,2.2,38.521,6.143,19.971,15.834,0,27.792,0Z" transform="translate(49.947 2.351)" fill="#99cf16"/>
    </g>
    <g id="Group_26063" data-name="Group 26063" transform="translate(122.108 9.287)">
      <path id="Path_21954" data-name="Path 21954" d="M62.926,4.173c-8.074,0-19.777,3.681-31.554,10.481C12.7,25.439.9,39.976,5.029,47.124c1.525,2.64,5.008,3.906,9.738,3.906,8.074,0,19.777-3.684,31.554-10.484C65,29.762,76.79,15.228,72.661,8.077c-1.525-2.64-5.008-3.9-9.735-3.9m0-4.173C71.1,0,74.7,3.258,76.276,5.99c2.924,5.061,1.149,12.017-4.991,19.587C66,32.1,57.87,38.7,48.408,44.161,36.43,51.075,23.857,55.2,14.767,55.2c-8.177,0-11.774-3.258-13.352-5.993C-4.859,38.34,10.685,21.78,29.285,11.04,41.26,4.126,53.836,0,62.926,0Z" transform="translate(20.45 43.518)" fill="#ffbf00"/>
      <path id="Path_21955" data-name="Path 21955" d="M57.716,4.173c-8,0-20.809,6.483-32.809,17.289C8.881,35.892.367,52.563,5.892,58.7c1.386,1.541,3.528,2.27,6.21,2.27,8,0,20.809-6.486,32.809-17.289,16.026-14.429,24.54-31.1,19.014-37.236C62.54,4.9,60.4,4.171,57.716,4.173m0-4.173c4.98,0,7.813,1.984,9.312,3.65,8.4,9.329-3.364,28.758-19.323,43.131C35.126,58.108,21.485,65.142,12.1,65.142c-4.98,0-7.813-1.984-9.313-3.65-8.4-9.329,3.364-28.761,19.323-43.131C34.692,7.036,48.334,0,57.716,0Z" transform="translate(15.249 25.97)" fill="#ffbf00"/>
      <path id="Path_21956" data-name="Path 21956" d="M48.971,4.174c-7.793,0-20.419,9.5-30.959,24.011C5.336,45.63.476,63.707,7.153,68.559a6.791,6.791,0,0,0,4.084,1.208c7.8,0,20.422-9.5,30.962-24.011C54.875,28.31,59.736,10.233,53.058,5.378a6.812,6.812,0,0,0-4.087-1.2m0-4.174A10.868,10.868,0,0,1,55.51,2c10.155,7.379,2.691,28.83-9.936,46.206C34.219,63.84,20.742,73.94,11.238,73.94a10.874,10.874,0,0,1-6.539-2C-.028,68.5-1.238,61.425,1.294,52.01c2.181-8.1,6.92-17.439,13.341-26.279C25.992,10.1,39.47,0,48.971,0Z" transform="translate(8.499 11.168)" fill="#ffbf00"/>
      <path id="Path_21957" data-name="Path 21957" d="M38.484,4.173c-7.718,0-19.145,12.467-27,30.11-8.773,19.7-9.769,38.4-2.226,41.751a6.131,6.131,0,0,0,2.538.52c7.718,0,19.145-12.468,27-30.11,8.773-19.7,9.769-38.393,2.226-41.751a6.173,6.173,0,0,0-2.538-.52m0-4.174a10.322,10.322,0,0,1,4.232.879c11.469,5.108,8.625,27.642-.109,47.263C35.387,64.363,23.059,80.729,11.8,80.729a10.347,10.347,0,0,1-4.235-.879c-11.469-5.108-8.625-27.642.111-47.263C14.893,16.368,27.221,0,38.487,0Z" transform="translate(0 0)" fill="#ffbf00"/>
    </g>
    <g id="Group_26064" data-name="Group 26064" transform="translate(146.107 71.789)">
      <path id="Path_21958" data-name="Path 21958" d="M21.126,4.173c-8.873,0-15.23,2.234-16.641,6.58C1.934,18.605,16.491,30.374,37,37.038a84,84,0,0,0,25.113,4.429c8.873,0,15.23-2.234,16.641-6.58C81.307,27.036,66.75,15.269,46.239,8.6A83.993,83.993,0,0,0,21.126,4.173m0-4.173a88.782,88.782,0,0,1,26.4,4.635c10.392,3.378,19.712,8.141,26.24,13.419,7.582,6.13,10.762,12.565,8.956,18.121-1.984,6.1-9.3,9.465-20.611,9.465a88.72,88.72,0,0,1-26.4-4.635C15.286,34.37-3.364,21.4.515,9.466,2.5,3.361,9.819,0,21.126,0Z" transform="translate(0 45.961)" fill="#ff5a00"/>
      <path id="Path_21959" data-name="Path 21959" d="M34.242,4.173c-16.627,0-29.317,4.493-30.035,11.338-.865,8.211,15.823,16.694,37.269,18.95a100.075,100.075,0,0,0,10.361.554c16.627,0,29.317-4.5,30.035-11.341C82.737,15.464,66.049,6.981,44.6,4.727a99.185,99.185,0,0,0-10.358-.554m0-4.173a104.135,104.135,0,0,1,10.8.576C55.9,1.719,66.013,4.443,73.495,8.247,82.187,12.665,86.635,18.3,86.023,24.111c-.963,9.159-14.382,15.077-34.186,15.077a103.37,103.37,0,0,1-10.8-.579c-10.868-1.141-20.976-3.865-28.457-7.671C3.892,26.524-.556,20.889.056,15.077,1.018,5.918,14.437,0,34.242,0Z" transform="translate(1.814 33.98)" fill="#ff5a00"/>
      <path id="Path_21960" data-name="Path 21960" d="M51.837,4.174a99.974,99.974,0,0,0-10.361.554C20.03,6.984,3.342,15.467,4.207,23.675c.718,6.847,13.405,11.341,30.032,11.341A100,100,0,0,0,44.6,34.462c21.449-2.254,38.137-10.737,37.272-18.947C81.154,8.667,68.467,4.174,51.837,4.174M51.84,0c19.8,0,33.221,5.918,34.184,15.077.612,5.812-3.837,11.446-12.529,15.865-7.482,3.8-17.59,6.527-28.458,7.671a104.206,104.206,0,0,1-10.8.576c-19.8,0-33.221-5.918-34.184-15.078C-.556,18.3,3.892,12.665,12.584,8.25,20.066,4.443,30.174,1.72,41.042.579A103.384,103.384,0,0,1,51.84,0Z" transform="translate(1.814 18.433)" fill="#ff5a00"/>
      <path id="Path_21961" data-name="Path 21961" d="M62.115,4.173A83.989,83.989,0,0,0,37,8.6C16.491,15.267,1.934,27.036,4.485,34.888c1.411,4.346,7.768,6.58,16.641,6.58a83.916,83.916,0,0,0,25.113-4.432c20.511-6.664,35.068-18.43,32.517-26.282-1.411-4.346-7.765-6.583-16.641-6.58m0-4.173C73.425,0,80.742,3.361,82.726,9.463c1.806,5.559-1.374,11.994-8.956,18.124-6.527,5.275-15.848,10.041-26.24,13.419a88.8,88.8,0,0,1-26.4,4.635C9.819,45.641,2.5,42.28.515,36.176c-3.879-11.939,14.771-24.9,35.2-31.543A88.79,88.79,0,0,1,62.118,0Z" transform="translate(0 0)" fill="#ff5a00"/>
    </g>
    <g id="Group_26065" data-name="Group 26065" transform="translate(122.108 127.171)">
      <path id="Path_21962" data-name="Path 21962" d="M11.8,4.173a6.172,6.172,0,0,0-2.538.52C1.716,8.052,2.712,26.746,11.484,46.448c7.854,17.643,19.281,30.11,27,30.11a6.171,6.171,0,0,0,2.538-.52c7.543-3.358,6.547-22.05-2.226-41.751C30.941,16.644,19.514,4.173,11.8,4.173M11.8,0C23.059,0,35.387,16.368,42.61,32.589c8.734,19.621,11.577,42.155.109,47.263a10.335,10.335,0,0,1-4.235.879c-11.263,0-23.591-16.366-30.811-32.587C-1.064,28.524-3.907,5.987,7.561.882A10.345,10.345,0,0,1,11.8,0Z" transform="translate(0 17.99)" fill="#f0047f"/>
      <path id="Path_21963" data-name="Path 21963" d="M11.238,4.173A6.792,6.792,0,0,0,7.153,5.381C.476,10.233,5.336,28.31,18.013,45.755c10.539,14.51,23.165,24.011,30.959,24.011a6.794,6.794,0,0,0,4.087-1.207C59.736,63.706,54.875,45.63,42.2,28.185,31.657,13.675,19.034,4.173,11.238,4.173m0-4.173c9.5,0,22.982,10.1,34.336,25.731C58.2,43.106,65.665,64.558,55.51,71.937a10.867,10.867,0,0,1-6.538,2c-9.5,0-22.979-10.1-34.336-25.731C8.213,39.37,3.475,30.035,1.294,21.93-1.238,12.515-.028,5.439,4.7,2a10.874,10.874,0,0,1,6.539-2Z" transform="translate(8.499 13.614)" fill="#f0047f"/>
      <path id="Path_21964" data-name="Path 21964" d="M12.05,4.174c-2.682,0-4.825.729-6.21,2.27C.315,12.579,8.828,29.25,24.854,43.68c12,10.807,24.81,17.289,32.809,17.289,2.682,0,4.824-.729,6.21-2.271,5.526-6.135-2.988-22.806-19.014-37.235-12-10.807-24.81-17.292-32.809-17.289m0-4.174c9.379,0,23.021,7.034,35.6,18.361,15.959,14.37,27.723,33.8,19.323,43.131-1.5,1.667-4.332,3.651-9.312,3.651-9.382,0-23.024-7.034-35.6-18.361C13.942,39.47,7.365,31.326,3.547,23.85c-4.432-8.684-4.721-15.856-.81-20.2C4.237,1.984,7.07,0,12.05,0Z" transform="translate(15.302 7.61)" fill="#f0047f"/>
      <path id="Path_21965" data-name="Path 21965" d="M14.768,4.173c-4.727,0-8.213,1.266-9.738,3.906C.9,15.228,12.7,29.765,31.373,40.549,43.15,47.35,54.853,51.03,62.927,51.03c4.727,0,8.21-1.263,9.735-3.9,4.129-7.151-7.665-21.688-26.34-32.47-11.78-6.8-23.48-10.484-31.554-10.484m0-4.173c9.087,0,21.66,4.129,33.638,11.043C57.871,16.508,66,23.107,71.285,29.626c6.14,7.571,7.916,14.526,4.991,19.588C74.7,51.946,71.1,55.2,62.927,55.2c-9.09,0-21.666-4.126-33.641-11.04-18.6-10.74-34.147-27.3-27.87-38.171C2.993,3.258,6.591,0,14.771,0Z" transform="translate(20.45 0)" fill="#f0047f"/>
    </g>
  </g>
</svg>
