<svg xmlns="http://www.w3.org/2000/svg" xmlns:xlink="http://www.w3.org/1999/xlink" width="262" height="131" viewBox="0 0 262 131">
  <defs>
    <clipPath id="clip-path">
      <rect id="Rectangle_18594" data-name="Rectangle 18594" width="103.682" height="97.583" fill="none"/>
    </clipPath>
  </defs>
  <g id="Group_26204" data-name="Group 26204" transform="translate(0.149)">
    <rect id="Rectangle_18599" data-name="Rectangle 18599" width="262" height="131" transform="translate(-0.149)" fill="none"/>
    <g id="Group_26199" data-name="Group 26199" transform="translate(79.379 16.574)">
      <g id="Group_26190" data-name="Group 26190" transform="translate(0 0)" clip-path="url(#clip-path)">
        <path id="Path_22177" data-name="Path 22177" d="M27.233,13.151H17.862V81.435h5.266V45.277h4.105a6.761,6.761,0,0,0,6.758-6.758V19.91a6.706,6.706,0,0,0-6.758-6.759M28.439,38.5a1.479,1.479,0,0,1-1.492,1.492h-4.1V18.4h4.1a1.428,1.428,0,0,1,1.492,1.492Z" transform="translate(0.53 0.39)" fill="#1a1718"/>
        <path id="Path_22178" data-name="Path 22178" d="M10.456,33.936h5.265v41A6.761,6.761,0,0,1,8.963,81.7H8.086a6.761,6.761,0,0,1-6.758-6.758v-41H6.594v41a1.479,1.479,0,0,0,1.492,1.492h.877a1.48,1.48,0,0,0,1.493-1.492Z" transform="translate(0.039 1.007)" fill="#1a1718"/>
        <path id="Path_22179" data-name="Path 22179" d="M35.795,46.5v4.827h-4.74v7.387h4.74v4.827h-4.74V80.447H25.79V46.5Z" transform="translate(0.765 1.38)" fill="#e20028"/>
        <path id="Path_22180" data-name="Path 22180" d="M49.455,52.784a8.141,8.141,0,0,0-2.72-5.353,6.65,6.65,0,0,0,4.476-6.319V30.076a6.705,6.705,0,0,0-6.758-6.758H36.9V81.134h5.267V49.8a3.177,3.177,0,0,1,2.018,2.634L47,81.134h5.353ZM43.844,40.671a1.479,1.479,0,0,1-1.492,1.492H40.07V26.388h2.282a1.428,1.428,0,0,1,1.492,1.492Z" transform="translate(1.095 0.692)" fill="#e20028"/>
        <path id="Path_22181" data-name="Path 22181" d="M60.252,38.732h-.791A6.761,6.761,0,0,0,52.7,45.49V74.8a6.761,6.761,0,0,0,6.758,6.758h.791A6.705,6.705,0,0,0,67.009,74.8V45.49a6.705,6.705,0,0,0-6.758-6.758m.2,34.945a1.428,1.428,0,0,1-1.492,1.492h-.79a1.48,1.48,0,0,1-1.492-1.492V44.371a1.479,1.479,0,0,1,1.492-1.491h.79a1.427,1.427,0,0,1,1.492,1.491Z" transform="translate(1.564 1.15)" fill="#e20028"/>
        <path id="Path_22182" data-name="Path 22182" d="M78.881,21.285h5.266v59.91H79.232L72.386,45.434l.966,35.761H68.086V21.285h4.827l6.845,37.854Z" transform="translate(2.021 0.632)" fill="#e20028"/>
        <path id="Path_22183" data-name="Path 22183" d="M84.945,35.894h16.216v7.561H97.509V80.762H88.6V43.455H84.945Z" transform="translate(2.521 1.065)" fill="#e20028"/>
        <path id="Path_22184" data-name="Path 22184" d="M9.128,32.608h5.266v41a6.761,6.761,0,0,1-6.758,6.758H6.758A6.761,6.761,0,0,1,0,73.611v-41H5.266v41A1.48,1.48,0,0,0,6.758,75.1h.878a1.48,1.48,0,0,0,1.492-1.492Z" transform="translate(0 0.968)" fill="#e20028"/>
        <path id="Path_22185" data-name="Path 22185" d="M25.905,11.824H16.534V80.108H21.8V43.95h4.105a6.761,6.761,0,0,0,6.758-6.758V18.583a6.706,6.706,0,0,0-6.758-6.759m1.206,25.347a1.479,1.479,0,0,1-1.492,1.492h-4.1V17.069h4.1a1.428,1.428,0,0,1,1.492,1.492Z" transform="translate(0.491 0.351)" fill="#e20028"/>
        <path id="Path_22186" data-name="Path 22186" d="M34.467,45.169V50h-4.74v7.387h4.74v4.827h-4.74V79.119H24.462V45.169Z" transform="translate(0.726 1.341)" fill="#1a1718"/>
        <path id="Path_22187" data-name="Path 22187" d="M48.128,51.457a8.141,8.141,0,0,0-2.72-5.354,6.65,6.65,0,0,0,4.476-6.319V28.749a6.706,6.706,0,0,0-6.759-6.759H35.577V79.806h5.266V48.473a3.178,3.178,0,0,1,2.019,2.633l2.808,28.7h5.354ZM43.883,40.711A1.479,1.479,0,0,1,42.391,42.2H40.11V26.428h2.282a1.428,1.428,0,0,1,1.492,1.492Z" transform="translate(1.056 0.653)" fill="#1a1718"/>
        <path id="Path_22188" data-name="Path 22188" d="M58.924,37.4h-.79a6.761,6.761,0,0,0-6.758,6.759V73.468a6.761,6.761,0,0,0,6.758,6.759h.79a6.706,6.706,0,0,0,6.759-6.759V44.163A6.706,6.706,0,0,0,58.924,37.4M60.49,73.717A1.428,1.428,0,0,1,59,75.209h-.79a1.48,1.48,0,0,1-1.492-1.492V44.41a1.479,1.479,0,0,1,1.492-1.491H59A1.427,1.427,0,0,1,60.49,44.41Z" transform="translate(1.525 1.11)" fill="#1a1718"/>
        <path id="Path_22189" data-name="Path 22189" d="M77.554,19.957h5.266v59.91H77.9L71.058,44.106l.966,35.761H66.758V19.957h4.827l6.845,37.854Z" transform="translate(1.981 0.592)" fill="#1a1718"/>
        <path id="Path_22190" data-name="Path 22190" d="M83.617,34.567H99.833v7.561H96.181V79.434H87.269V42.128H83.617Z" transform="translate(2.482 1.026)" fill="#1a1718"/>
        <path id="Path_22191" data-name="Path 22191" d="M13.718,90.752l-.349,2.33h-.787l1.2-7.3h1.107l1.249,7.3h-.814l-.375-2.33Zm1.13-.715c-.255-1.607-.438-2.85-.508-3.54h-.032c-.027.564-.288,2.207-.485,3.54Z" transform="translate(0.373 2.546)" fill="#1a1718"/>
        <path id="Path_22192" data-name="Path 22192" d="M20.911,90.991v.247c0,.929-.167,1.945-1.487,1.945-1.264,0-1.481-.9-1.481-1.969V87.5c0-1.169.5-1.813,1.49-1.813,1.225,0,1.445.87,1.445,1.826V87.8h-.789v-.343c0-.578-.091-1.059-.668-1.059-.547,0-.685.433-.685,1.077v3.79c0,.733.16,1.215.708,1.215.569,0,.672-.494.672-1.182v-.306Z" transform="translate(0.533 2.543)" fill="#1a1718"/>
        <path id="Path_22193" data-name="Path 22193" d="M24.19,92.072c0,.379.006.8.022.963h-.721a3.958,3.958,0,0,1-.059-.452.9.9,0,0,1-.91.54c-.8,0-1.123-.714-1.123-1.572v-.1a1.56,1.56,0,0,1,1.772-1.7h.242v-.88c0-.5-.085-.823-.522-.823s-.551.329-.551.765v.148h-.766v-.139c0-.776.3-1.436,1.343-1.436.971,0,1.274.608,1.274,1.428Zm-.762-1.7h-.271c-.63,0-1.006.265-1.006,1.067v.094c0,.5.154.9.589.9.512,0,.688-.409.688-1.242Z" transform="translate(0.635 2.594)" fill="#1a1718"/>
        <path id="Path_22194" data-name="Path 22194" d="M24.583,87.507h.638V86.14h.77v1.367h.785v.69h-.785v3.736c0,.286.051.56.4.56a1.707,1.707,0,0,0,.349-.032v.6a1.745,1.745,0,0,1-.6.085c-.54,0-.917-.224-.917-1.074V88.2h-.638Z" transform="translate(0.73 2.557)" fill="#1a1718"/>
        <path id="Path_22195" data-name="Path 22195" d="M29.9,92.072c0,.379.006.8.022.963H29.2a3.959,3.959,0,0,1-.059-.452.9.9,0,0,1-.91.54c-.8,0-1.123-.714-1.123-1.572v-.1a1.56,1.56,0,0,1,1.772-1.7h.242v-.88c0-.5-.085-.823-.522-.823s-.551.329-.551.765v.148h-.766v-.139c0-.776.3-1.436,1.343-1.436.971,0,1.274.608,1.274,1.428Zm-.762-1.7h-.271c-.63,0-1.006.265-1.006,1.067v.094c0,.5.154.9.589.9.512,0,.688-.409.688-1.242Z" transform="translate(0.805 2.594)" fill="#1a1718"/>
        <rect id="Rectangle_18589" data-name="Rectangle 18589" width="0.777" height="7.624" transform="translate(31.741 88.005)" fill="#1a1718"/>
        <path id="Path_22196" data-name="Path 22196" d="M33.024,87.468c.368,2.024.72,3.947.769,4.593h.021c.11-.9.481-2.685.818-4.593h.784L34.177,93.33c-.331,1.55-.8,1.657-1.407,1.657a2.263,2.263,0,0,1-.409-.043l.01-.713a1.729,1.729,0,0,0,.309.034c.4,0,.579-.175.731-1.027l-1.222-5.77Z" transform="translate(0.955 2.596)" fill="#1a1718"/>
        <path id="Path_22197" data-name="Path 22197" d="M36.426,91.38v.244c0,.54.214.828.612.828.422,0,.59-.265.59-.776,0-.539-.159-.795-.793-1.214-.745-.49-1.091-.882-1.091-1.654,0-.822.4-1.425,1.307-1.425.985,0,1.29.627,1.29,1.463V89.1h-.757v-.307c0-.473-.137-.741-.541-.741-.37,0-.523.257-.523.687s.135.624.692.995c.818.536,1.2.923,1.2,1.84,0,1.009-.454,1.549-1.411,1.549-1.089,0-1.366-.725-1.366-1.491V91.38Z" transform="translate(1.058 2.594)" fill="#1a1718"/>
        <path id="Path_22198" data-name="Path 22198" d="M38.638,87.507h.638V86.14h.77v1.367h.785v.69h-.785v3.736c0,.286.051.56.4.56a1.707,1.707,0,0,0,.349-.032v.6a1.745,1.745,0,0,1-.6.085c-.54,0-.917-.224-.917-1.074V88.2h-.638Z" transform="translate(1.147 2.557)" fill="#1a1718"/>
        <path id="Path_22199" data-name="Path 22199" d="M45.694,93.085h-.617c-.022-.119-.043-.466-.048-.632a1.031,1.031,0,0,1-1.074.73c-1.009,0-1.342-.745-1.342-1.913V87.618c0-1.2.483-1.931,1.562-1.931,1.273,0,1.5.9,1.5,1.827V87.7H44.9v-.2c0-.511-.061-1.1-.733-1.1-.508,0-.762.32-.762,1.15V91.31c0,.719.187,1.178.72,1.178.67,0,.785-.618.785-1.55V89.775H44.1V89.1h1.594Z" transform="translate(1.265 2.543)" fill="#1a1718"/>
        <path id="Path_22200" data-name="Path 22200" d="M46.537,89.364c0-.9.005-1.4-.011-1.894h.741c.011.146.027.5.027.869a1.2,1.2,0,0,1,1.173-.944v.96c-.688.005-1.152.4-1.152,1.408v3.272h-.777Z" transform="translate(1.381 2.594)" fill="#1a1718"/>
        <path id="Path_22201" data-name="Path 22201" d="M51.737,89.049v2.328c0,1.208-.57,1.745-1.465,1.745s-1.436-.529-1.436-1.715V89.03c0-1.071.565-1.647,1.469-1.647.936,0,1.432.611,1.432,1.666m-2.119-.023v2.406c0,.606.2.995.669.995.432,0,.666-.3.666-1v-2.4c0-.547-.181-.943-.664-.943s-.671.342-.671.948" transform="translate(1.449 2.594)" fill="#1a1718"/>
        <path id="Path_22202" data-name="Path 22202" d="M55.33,91.529c0,.72,0,1.239.011,1.5H54.6a5.1,5.1,0,0,1-.032-.579.927.927,0,0,1-1,.666c-.457,0-1.083-.178-1.083-1.421V87.468h.777V91.5c0,.66.178.92.59.92.39,0,.7-.236.7-1.3V87.468h.776Z" transform="translate(1.558 2.596)" fill="#1a1718"/>
        <path id="Path_22203" data-name="Path 22203" d="M57.017,92.581v2.331H56.24V89.075c0-.759,0-1.254-.011-1.6h.74a4.975,4.975,0,0,1,.032.594.994.994,0,0,1,1.007-.682c.762,0,1.133.515,1.133,1.612v2.36c0,1.233-.475,1.767-1.216,1.767a.9.9,0,0,1-.908-.542m1.342-1.209V89.026c0-.672-.243-.932-.6-.932-.58,0-.744.487-.744,1.21v1.822c0,.647.091,1.285.7,1.285.47,0,.652-.378.652-1.039" transform="translate(1.669 2.594)" fill="#1a1718"/>
        <rect id="Rectangle_18590" data-name="Rectangle 18590" width="0.776" height="7.301" transform="translate(63.183 88.327)" fill="#1a1718"/>
        <path id="Path_22204" data-name="Path 22204" d="M63.076,89.164c0-1.117,0-1.419-.011-1.694h.74a4.409,4.409,0,0,1,.032.556,1,1,0,0,1,1.019-.644c.61,0,1.1.347,1.1,1.37v4.281h-.777V88.9c0-.539-.181-.81-.585-.81-.465,0-.738.232-.738,1.284v3.656h-.777Z" transform="translate(1.872 2.594)" fill="#1a1718"/>
        <path id="Path_22205" data-name="Path 22205" d="M66.866,87.527h.777v5.564h-.777Zm.005-2.059h.777V86.6h-.777Z" transform="translate(1.984 2.537)" fill="#1a1718"/>
        <path id="Path_22206" data-name="Path 22206" d="M68.118,87.507h.638V86.14h.77v1.367h.785v.69h-.785v3.736c0,.286.051.56.4.56a1.707,1.707,0,0,0,.349-.032v.6a1.745,1.745,0,0,1-.6.085c-.54,0-.917-.224-.917-1.074V88.2h-.638Z" transform="translate(2.022 2.557)" fill="#1a1718"/>
        <path id="Path_22207" data-name="Path 22207" d="M70.836,87.527h.777v5.564h-.777Zm.005-2.059h.777V86.6h-.777Z" transform="translate(2.102 2.537)" fill="#1a1718"/>
        <path id="Path_22208" data-name="Path 22208" d="M75.092,92.072c0,.379.006.8.022.963h-.721a3.961,3.961,0,0,1-.059-.452.9.9,0,0,1-.91.54c-.8,0-1.123-.714-1.123-1.572v-.1a1.56,1.56,0,0,1,1.772-1.7h.242v-.88c0-.5-.085-.823-.522-.823s-.551.329-.551.765v.148h-.766v-.139c0-.776.3-1.436,1.343-1.436.971,0,1.274.608,1.274,1.428Zm-.762-1.7H74.06c-.63,0-1.006.265-1.006,1.067v.094c0,.5.154.9.589.9.512,0,.688-.409.688-1.242Z" transform="translate(2.146 2.594)" fill="#1a1718"/>
        <path id="Path_22209" data-name="Path 22209" d="M75.485,87.507h.638V86.14h.77v1.367h.785v.69h-.785v3.736c0,.286.051.56.4.56a1.707,1.707,0,0,0,.349-.032v.6a1.745,1.745,0,0,1-.6.085c-.54,0-.917-.224-.917-1.074V88.2h-.638Z" transform="translate(2.24 2.557)" fill="#1a1718"/>
        <path id="Path_22210" data-name="Path 22210" d="M78.2,87.527h.777v5.564H78.2Zm.005-2.059h.777V86.6h-.777Z" transform="translate(2.321 2.537)" fill="#1a1718"/>
        <path id="Path_22211" data-name="Path 22211" d="M80.4,87.468c.168.938.662,3.63.785,4.68h.011c.085-.958.65-3.669.818-4.68h.783L81.61,93.032h-.889l-1.154-5.564Z" transform="translate(2.361 2.596)" fill="#1a1718"/>
        <path id="Path_22212" data-name="Path 22212" d="M83.906,90.413v.909c0,.554.11,1.131.659,1.131.527,0,.625-.429.625-.962v-.046h.762v.04c0,.645-.15,1.637-1.384,1.637-1.161,0-1.424-.762-1.424-1.892V89.158c0-.844.3-1.775,1.436-1.775,1.074,0,1.388.8,1.388,1.776v1.254Zm1.31-.635v-.7c0-.519-.083-1.03-.64-1.03-.526,0-.664.433-.664,1.035v.69Z" transform="translate(2.468 2.594)" fill="#1a1718"/>
        <path id="Path_22213" data-name="Path 22213" d="M24.378.361h1.334c1.086,0,1.6.549,1.6,1.729v.444c0,1.1-.328,1.908-1.656,1.908h-.5V7.662h-.776Zm.776,3.426h.436c.827,0,.948-.508.948-1.267V2.128c0-.591-.131-1.107-.88-1.107h-.5Z" transform="translate(0.724 0.011)" fill="#1a1718"/>
        <rect id="Rectangle_18591" data-name="Rectangle 18591" width="0.777" height="7.624" transform="translate(28.844 0.048)" fill="#1a1718"/>
        <path id="Path_22214" data-name="Path 22214" d="M32.269,6.652c0,.379.006.8.022.963H31.57a3.958,3.958,0,0,1-.059-.452.9.9,0,0,1-.91.54c-.8,0-1.123-.714-1.123-1.572v-.1a1.56,1.56,0,0,1,1.772-1.7h.242v-.88c0-.5-.085-.823-.522-.823s-.551.329-.551.765v.148h-.766V3.4c0-.776.3-1.436,1.343-1.436.971,0,1.274.608,1.274,1.428Zm-.762-1.7h-.271c-.63,0-1.006.265-1.006,1.067v.094c0,.5.154.9.589.9.512,0,.688-.409.688-1.242Z" transform="translate(0.875 0.058)" fill="#1a1718"/>
        <path id="Path_22215" data-name="Path 22215" d="M35.775,5.857v.076c0,.961-.244,1.769-1.384,1.769C33.3,7.7,33.04,6.95,33.04,5.823V3.663c0-.942.343-1.7,1.4-1.7,1.138,0,1.335.835,1.335,1.576v.227H35V3.573c0-.5-.083-.94-.578-.94-.431,0-.6.323-.6.982V6c0,.5.095,1.031.589,1.031.441,0,.59-.3.59-1V5.857Z" transform="translate(0.981 0.058)" fill="#1a1718"/>
        <path id="Path_22216" data-name="Path 22216" d="M36.453,2.107h.777V7.672h-.777Zm.005-2.06h.777V1.176h-.777Z" transform="translate(1.082 0.001)" fill="#1a1718"/>
        <path id="Path_22217" data-name="Path 22217" d="M38.2,3.744c0-1.117,0-1.419-.011-1.694h.74a4.408,4.408,0,0,1,.032.556,1,1,0,0,1,1.019-.644c.61,0,1.1.347,1.1,1.371V7.615H40.3V3.485c0-.539-.181-.81-.585-.81-.465,0-.738.232-.738,1.284V7.615H38.2Z" transform="translate(1.134 0.058)" fill="#1a1718"/>
        <path id="Path_22218" data-name="Path 22218" d="M44.735,7.5c0,1.129-.127,2.08-1.519,2.08A1.238,1.238,0,0,1,41.839,8.2V8.168h.783V8.2a.633.633,0,0,0,.637.719c.574,0,.7-.428.7-1.23V6.974a.9.9,0,0,1-.941.581c-.849,0-1.177-.621-1.177-1.7V3.617c0-.978.424-1.654,1.291-1.654a.844.844,0,0,1,.91.573,3.946,3.946,0,0,1,.043-.485h.672c-.011.307-.022.807-.022,1.464ZM42.623,3.658v2.13c0,.715.186,1.065.608,1.065.633,0,.734-.633.734-1.383V3.827c0-.639-.068-1.152-.662-1.152-.477,0-.68.351-.68.983" transform="translate(1.242 0.058)" fill="#1a1718"/>
        <path id="Path_22219" data-name="Path 22219" d="M47.747,7.661,46.729.36h.83c.224,1.777.589,4.846.65,6h.015c.1-1.174.6-4.267.843-6h.792c.25,1.742.74,4.647.832,5.959h.028c.081-1.247.473-4.174.7-5.959h.794L51.1,7.661h-.842c-.238-1.706-.687-4.593-.816-5.8H49.43c-.151,1.316-.59,4.116-.845,5.8Z" transform="translate(1.387 0.011)" fill="#1a1718"/>
        <path id="Path_22220" data-name="Path 22220" d="M55.273,3.629V5.957c0,1.208-.57,1.745-1.465,1.745s-1.436-.529-1.436-1.715V3.61c0-1.071.565-1.647,1.469-1.647.936,0,1.432.611,1.432,1.666m-2.119-.023V6.013c0,.606.2.995.669.995.432,0,.666-.3.666-1V3.6c0-.547-.181-.943-.664-.943s-.671.342-.671.948" transform="translate(1.554 0.058)" fill="#1a1718"/>
        <path id="Path_22221" data-name="Path 22221" d="M56.028,3.944c0-.9.005-1.4-.011-1.894h.741c.011.146.027.5.027.869a1.2,1.2,0,0,1,1.173-.944v.96c-.688.005-1.152.4-1.152,1.408V7.615h-.777Z" transform="translate(1.662 0.059)" fill="#1a1718"/>
        <path id="Path_22222" data-name="Path 22222" d="M59.241,4.709h.016c.27-.616.891-1.9,1.219-2.6h.818L60.245,4.145l1.178,3.527h-.851L59.714,4.9l-.473.9V7.672h-.772V.047h.772Z" transform="translate(1.735 0.001)" fill="#1a1718"/>
        <path id="Path_22223" data-name="Path 22223" d="M62.087,7.672V2.8H61.5V2.109h.588V1.324C62.087.648,62.342,0,63.229,0A1.465,1.465,0,0,1,63.6.037V.751a1.249,1.249,0,0,0-.251-.024c-.4,0-.484.265-.484.685v.7h.713V2.8h-.713V7.672Z" transform="translate(1.825 0)" fill="#1a1718"/>
        <path id="Path_22224" data-name="Path 22224" d="M66.791,3.629V5.957c0,1.208-.57,1.745-1.465,1.745s-1.436-.529-1.436-1.715V3.61c0-1.071.565-1.647,1.469-1.647.936,0,1.432.611,1.432,1.666m-2.119-.023V6.013c0,.606.2.995.669.995.432,0,.666-.3.666-1V3.6c0-.547-.181-.943-.664-.943s-.671.342-.671.948" transform="translate(1.896 0.058)" fill="#1a1718"/>
        <path id="Path_22225" data-name="Path 22225" d="M67.546,3.944c0-.9.005-1.4-.011-1.894h.741c.011.146.027.5.027.869a1.2,1.2,0,0,1,1.173-.944v.96c-.688.005-1.152.4-1.152,1.408V7.615h-.777Z" transform="translate(2.004 0.059)" fill="#1a1718"/>
        <path id="Path_22226" data-name="Path 22226" d="M72.579,5.857v.076c0,.961-.244,1.769-1.384,1.769-1.086,0-1.351-.753-1.351-1.879V3.663c0-.942.343-1.7,1.4-1.7,1.138,0,1.335.835,1.335,1.576v.227h-.773V3.573c0-.5-.083-.94-.578-.94-.431,0-.6.323-.6.982V6c0,.5.095,1.031.589,1.031.441,0,.59-.3.59-1V5.857Z" transform="translate(2.073 0.058)" fill="#1a1718"/>
        <path id="Path_22227" data-name="Path 22227" d="M73.918,4.992V5.9c0,.554.11,1.131.659,1.131.527,0,.625-.429.625-.962V6.024h.762v.04c0,.645-.15,1.637-1.384,1.637-1.161,0-1.424-.762-1.424-1.892V3.737c0-.844.3-1.775,1.436-1.775,1.074,0,1.388.8,1.388,1.776V4.992Zm1.31-.635v-.7c0-.519-.083-1.03-.64-1.03-.526,0-.664.433-.664,1.035v.69Z" transform="translate(2.171 0.058)" fill="#1a1718"/>
        <path id="Path_22228" data-name="Path 22228" d="M36.882,18.277l-1.018-7.3h.83c.224,1.776.589,4.846.65,6h.015c.1-1.173.6-4.266.843-6h.791c.25,1.742.741,4.647.833,5.959h.028c.081-1.248.473-4.174.7-5.959h.794l-1.108,7.3H39.4c-.238-1.706-.688-4.594-.817-5.8h-.015c-.15,1.316-.589,4.115-.844,5.8Z" transform="translate(1.064 0.326)" fill="#1a1718"/>
        <path id="Path_22229" data-name="Path 22229" d="M42.267,15.608v.909c0,.554.11,1.131.659,1.131.527,0,.625-.429.625-.962V16.64h.762v.04c0,.645-.15,1.637-1.384,1.637-1.161,0-1.424-.762-1.424-1.892V14.353c0-.844.3-1.775,1.436-1.775,1.074,0,1.388.8,1.388,1.776v1.254Zm1.31-.635v-.7c0-.519-.083-1.03-.64-1.03-.526,0-.664.433-.664,1.035v.69Z" transform="translate(1.232 0.373)" fill="#1a1718"/>
        <rect id="Rectangle_18592" data-name="Rectangle 18592" width="0.777" height="7.624" transform="translate(46.405 10.979)" fill="#1a1718"/>
        <rect id="Rectangle_18593" data-name="Rectangle 18593" width="0.777" height="7.624" transform="translate(48.209 10.979)" fill="#1a1718"/>
        <path id="Path_22230" data-name="Path 22230" d="M48.57,10.663h.776v2.571a1,1,0,0,1,.994-.6c.8,0,1.131.652,1.131,1.612v2.147c0,1.137-.236,1.969-1.254,1.969a.9.9,0,0,1-.923-.61,4.726,4.726,0,0,1-.032.533h-.7c.016-.315.011-.811.011-1.471Zm2.118,5.865V14.367c0-.639-.149-1.02-.614-1.02-.631,0-.733.6-.733,1.366v1.709c0,.842.2,1.229.7,1.229.424,0,.647-.351.647-1.123" transform="translate(1.441 0.317)" fill="#1a1718"/>
        <path id="Path_22231" data-name="Path 22231" d="M52.861,15.608v.909c0,.554.11,1.131.659,1.131.527,0,.625-.429.625-.962V16.64h.762v.04c0,.645-.15,1.637-1.384,1.637-1.161,0-1.424-.762-1.424-1.892V14.353c0-.844.3-1.775,1.436-1.775,1.074,0,1.388.8,1.388,1.776v1.254Zm1.31-.635v-.7c0-.519-.083-1.03-.64-1.03-.526,0-.664.433-.664,1.035v.69Z" transform="translate(1.546 0.373)" fill="#1a1718"/>
        <path id="Path_22232" data-name="Path 22232" d="M55.64,12.723h.777v5.564H55.64Zm.005-2.06h.777v1.129h-.777Z" transform="translate(1.651 0.317)" fill="#1a1718"/>
        <path id="Path_22233" data-name="Path 22233" d="M57.392,14.36c0-1.117,0-1.419-.011-1.694h.74a4.409,4.409,0,0,1,.032.556,1,1,0,0,1,1.019-.644c.61,0,1.1.347,1.1,1.371v4.281h-.777V14.1c0-.539-.181-.81-.585-.81-.465,0-.738.232-.738,1.284v3.656h-.777Z" transform="translate(1.703 0.373)" fill="#1a1718"/>
        <path id="Path_22234" data-name="Path 22234" d="M63.922,18.116c0,1.129-.127,2.08-1.519,2.08a1.238,1.238,0,0,1-1.378-1.384v-.028h.783v.034a.633.633,0,0,0,.637.719c.574,0,.7-.428.7-1.23V17.59a.9.9,0,0,1-.941.581c-.849,0-1.177-.621-1.177-1.7V14.233c0-.978.424-1.654,1.291-1.654a.844.844,0,0,1,.91.573,3.945,3.945,0,0,1,.043-.485h.672c-.011.307-.022.807-.022,1.464ZM61.81,14.274V16.4c0,.715.186,1.065.608,1.065.633,0,.734-.633.734-1.383V14.443c0-.639-.068-1.152-.662-1.152-.477,0-.68.351-.68.983" transform="translate(1.811 0.373)" fill="#1a1718"/>
      </g>
    </g>
  </g>
</svg>
