<svg id="Group_7782" data-name="Group 7782" xmlns="http://www.w3.org/2000/svg" width="29.522" height="29.522" viewBox="0 0 29.522 29.522">
  <path id="Path_125" data-name="Path 125" d="M211.762,9236.628a14.761,14.761,0,1,0,14.761,14.762,14.778,14.778,0,0,0-14.761-14.762" transform="translate(-197.001 -9236.628)"/>
  <path id="Path_126" data-name="Path 126" d="M219.444,9255.405a2.245,2.245,0,0,0,3.139.155l3.372-3.055a2.221,2.221,0,1,0-2.982-3.293l-2.165,1.965a6.11,6.11,0,0,0-3.428-.449,5.07,5.07,0,0,1,.425-.441l3.372-3.056a4.9,4.9,0,0,1,6.575,7.259l-3.374,3.055a4.9,4.9,0,0,1-6.917-.342,4.653,4.653,0,0,1-.829-1.265c-.032-.2.146-.373.273-.491a1.891,1.891,0,0,1,2.292-.262S219.383,9255.341,219.444,9255.405Z" transform="translate(-205.068 -9240.467)" fill="#fff"/>
  <path id="Path_127" data-name="Path 127" d="M215.346,9258.647a2.245,2.245,0,0,0-3.139-.155l-3.372,3.056a2.221,2.221,0,1,0,2.984,3.292l2.166-1.964a6.106,6.106,0,0,0,3.428.448,5.247,5.247,0,0,1-.426.442l-3.372,3.056a4.9,4.9,0,0,1-6.575-7.259l3.372-3.056a4.906,4.906,0,0,1,6.917.342,4.632,4.632,0,0,1,.829,1.267c.032.2-.146.372-.273.489a1.893,1.893,0,0,1-2.292.264S215.407,9258.711,215.346,9258.647Z" transform="translate(-200.467 -9244.279)" fill="#fff"/>
</svg>
