<?xml version="1.0" encoding="UTF-8"?>
<svg id="Layer_1" xmlns="http://www.w3.org/2000/svg" xmlns:xlink="http://www.w3.org/1999/xlink" version="1.1" viewBox="0 0 600 84.3">
  <!-- Generator: Adobe Illustrator 29.0.0, SVG Export Plug-In . SVG Version: 2.1.0 Build 186)  -->
  <defs>
    <style>
      .st0 {
        fill: url(#linear-gradient);
      }

      .st1 {
        fill: #fff;
      }

      .st2 {
        display: none;
      }

      .st3 {
        fill: #2a7a99;
      }
    </style>
    <linearGradient id="linear-gradient" x1="-237.4" y1="575.7" x2="-238.6" y2="575.7" gradientTransform="translate(143161 42062) scale(600 -73)" gradientUnits="userSpaceOnUse">
      <stop offset="0" stop-color="#fbd036"/>
      <stop offset=".6" stop-color="#2a7a99"/>
      <stop offset="1" stop-color="#2a7a99"/>
    </linearGradient>
  </defs>
  <g id="Group_49627">
    <path id="Path_21966" class="st3" d="M287,71l13.4,13.3,13.4-13.3h-26.7Z"/>
    <rect id="Rectangle_18366" class="st0" width="600" height="73"/>
  </g>
  <g>
    <path class="st1" d="M249.9,23.9v23.1h-4.3v-10.1h-10.9v10.1h-4.3v-23.1h4.3v10h10.9v-10h4.3Z"/>
    <path class="st1" d="M258.9,25.8c0,.3,0,.7-.2,1-.1.3-.3.6-.6.8-.2.2-.5.4-.8.5-.3.1-.6.2-1,.2s-.7,0-1-.2-.6-.3-.8-.5-.4-.5-.5-.8c-.1-.3-.2-.6-.2-1s0-.7.2-1,.3-.6.5-.8c.2-.2.5-.4.8-.5s.6-.2,1-.2.7,0,1,.2c.3.1.6.3.8.5.2.2.4.5.6.8s.2.6.2,1ZM258.3,30.6v16.4h-4v-16.4h4Z"/>
    <path class="st1" d="M276.8,31.1v1.5c0,.5-.3.8-.8.9l-1.5.3c.2.6.3,1.2.3,1.9s-.2,1.5-.5,2.2c-.3.7-.8,1.2-1.4,1.7-.6.5-1.3.8-2,1.1-.8.3-1.6.4-2.5.4s-.6,0-.9,0c-.3,0-.6,0-.9-.1-.5.3-.8.7-.8,1s.2.6.5.7.7.3,1.2.3c.5,0,1.1.1,1.7.1s1.3,0,2,.1c.7,0,1.3.1,2,.3.6.1,1.2.3,1.7.6.5.3.9.7,1.2,1.2.3.5.5,1.1.5,1.9s-.2,1.4-.5,2.1-.9,1.3-1.6,1.8c-.7.5-1.5,1-2.5,1.3-1,.3-2.1.5-3.4.5s-2.3-.1-3.2-.4-1.7-.6-2.3-1c-.6-.4-1.1-.9-1.4-1.4-.3-.5-.4-1.1-.4-1.6s.2-1.4.7-1.9,1.1-.9,1.9-1.2c-.4-.2-.8-.5-1-.9-.3-.4-.4-.9-.4-1.5s0-.5.1-.8c0-.3.2-.5.4-.8.2-.3.4-.5.7-.7s.6-.4.9-.6c-.8-.4-1.5-1-2-1.8s-.7-1.6-.7-2.6.2-1.5.5-2.2c.3-.7.8-1.2,1.4-1.7.6-.5,1.3-.8,2.1-1.1.8-.2,1.7-.4,2.6-.4s1.4,0,2,.2c.6.1,1.2.4,1.7.6h4.7ZM272.8,47.7c0-.3,0-.6-.3-.8s-.5-.4-.8-.5c-.3-.1-.7-.2-1.2-.2-.4,0-.9,0-1.4-.1-.5,0-1,0-1.5,0-.5,0-1,0-1.5-.1-.4.2-.8.5-1.1.9-.3.3-.4.7-.4,1.2s0,.6.2.8c.1.2.4.5.7.6.3.2.7.3,1.2.4.5.1,1.1.2,1.8.2s1.4,0,1.9-.2c.5-.1,1-.3,1.3-.5s.6-.4.8-.7c.2-.3.2-.6.2-.9ZM268.4,38.4c.5,0,.9,0,1.3-.2.4-.1.7-.3.9-.6.2-.2.4-.5.5-.8.1-.3.2-.7.2-1.1,0-.8-.2-1.5-.7-1.9-.5-.5-1.2-.7-2.2-.7s-1.7.2-2.2.7c-.5.5-.7,1.1-.7,1.9s0,.7.2,1.1c.1.3.3.6.5.9.2.2.5.4.9.6.4.1.8.2,1.3.2Z"/>
    <path class="st1" d="M283.2,32.3c.6-.6,1.3-1.1,2.1-1.5s1.7-.6,2.7-.6,1.7.2,2.4.5c.7.3,1.3.7,1.7,1.3.5.5.8,1.2,1.1,2s.4,1.6.4,2.5v10.4h-4v-10.4c0-1-.2-1.8-.7-2.3-.5-.5-1.2-.8-2.1-.8s-1.3.2-1.9.5c-.6.3-1.2.7-1.7,1.3v11.9h-4v-23.8h4v9.1Z"/>
    <path class="st1" d="M301.3,23.2v23.8h-4v-23.8h4Z"/>
    <path class="st1" d="M309.9,25.8c0,.3,0,.7-.2,1-.1.3-.3.6-.6.8s-.5.4-.8.5c-.3.1-.6.2-1,.2s-.7,0-1-.2c-.3-.1-.6-.3-.8-.5-.2-.2-.4-.5-.5-.8-.1-.3-.2-.6-.2-1s0-.7.2-1c.1-.3.3-.6.5-.8.2-.2.5-.4.8-.5.3-.1.6-.2,1-.2s.7,0,1,.2c.3.1.6.3.8.5.2.2.4.5.6.8s.2.6.2,1ZM309.4,30.6v16.4h-4v-16.4h4Z"/>
    <path class="st1" d="M327.8,31.1v1.5c0,.5-.3.8-.8.9l-1.5.3c.2.6.3,1.2.3,1.9s-.2,1.5-.5,2.2c-.3.7-.8,1.2-1.4,1.7-.6.5-1.3.8-2,1.1-.8.3-1.6.4-2.5.4s-.6,0-.9,0c-.3,0-.6,0-.9-.1-.5.3-.8.7-.8,1s.2.6.5.7.7.3,1.2.3c.5,0,1.1.1,1.7.1s1.3,0,2,.1c.7,0,1.3.1,2,.3.6.1,1.2.3,1.7.6.5.3.9.7,1.2,1.2.3.5.5,1.1.5,1.9s-.2,1.4-.5,2.1c-.4.7-.9,1.3-1.6,1.8-.7.5-1.5,1-2.5,1.3-1,.3-2.1.5-3.4.5s-2.3-.1-3.2-.4-1.7-.6-2.3-1c-.6-.4-1.1-.9-1.4-1.4-.3-.5-.4-1.1-.4-1.6s.2-1.4.7-1.9c.5-.5,1.1-.9,1.9-1.2-.4-.2-.8-.5-1-.9-.3-.4-.4-.9-.4-1.5s0-.5.1-.8c0-.3.2-.5.4-.8.2-.3.4-.5.7-.7s.6-.4.9-.6c-.8-.4-1.5-1-2-1.8s-.7-1.6-.7-2.6.2-1.5.5-2.2c.3-.7.8-1.2,1.4-1.7.6-.5,1.3-.8,2.1-1.1.8-.2,1.7-.4,2.6-.4s1.4,0,2,.2c.6.1,1.2.4,1.7.6h4.7ZM323.9,47.7c0-.3,0-.6-.3-.8s-.5-.4-.8-.5c-.3-.1-.7-.2-1.2-.2-.4,0-.9,0-1.4-.1-.5,0-1,0-1.5,0-.5,0-1,0-1.5-.1-.4.2-.8.5-1.1.9-.3.3-.4.7-.4,1.2s0,.6.2.8c.1.2.4.5.7.6.3.2.7.3,1.2.4.5.1,1.1.2,1.8.2s1.4,0,1.9-.2,1-.3,1.3-.5.6-.4.8-.7.2-.6.2-.9ZM319.4,38.4c.5,0,.9,0,1.3-.2.4-.1.7-.3.9-.6.2-.2.4-.5.5-.8.1-.3.2-.7.2-1.1,0-.8-.2-1.5-.7-1.9-.5-.5-1.2-.7-2.2-.7s-1.7.2-2.2.7c-.5.5-.7,1.1-.7,1.9s0,.7.2,1.1c.1.3.3.6.5.9.2.2.5.4.9.6.4.1.8.2,1.3.2Z"/>
    <path class="st1" d="M334.2,32.3c.6-.6,1.3-1.1,2.1-1.5.8-.4,1.7-.6,2.7-.6s1.7.2,2.4.5c.7.3,1.3.7,1.7,1.3s.8,1.2,1.1,2c.2.8.4,1.6.4,2.5v10.4h-4v-10.4c0-1-.2-1.8-.7-2.3-.5-.5-1.2-.8-2.1-.8s-1.3.2-1.9.5c-.6.3-1.2.7-1.7,1.3v11.9h-4v-23.8h4v9.1Z"/>
    <path class="st1" d="M353.6,47.3c-1.4,0-2.5-.4-3.3-1.2s-1.1-1.9-1.1-3.3v-9.2h-1.7c-.2,0-.4,0-.5-.2s-.2-.3-.2-.6v-1.6l2.6-.4.8-4.5c0-.2.2-.4.3-.5.1-.1.3-.2.6-.2h2v5.2h4.4v2.8h-4.4v8.9c0,.5.1.9.4,1.2.2.3.6.4,1,.4s.5,0,.6,0,.3-.1.4-.2c.1,0,.2-.1.3-.2,0,0,.2,0,.3,0s.2,0,.3,0c0,0,.2.1.2.3l1.2,1.9c-.6.5-1.2.8-2,1.1-.7.2-1.5.4-2.3.4Z"/>
    <path class="st1" d="M370,33.8c-.1.2-.2.3-.3.4s-.3.1-.4.1-.4,0-.6-.2c-.2-.1-.5-.2-.8-.4s-.6-.3-1-.4-.8-.2-1.3-.2c-.8,0-1.4.2-1.8.5-.4.3-.7.8-.7,1.3s.1.6.3.9c.2.2.5.5.9.6.4.2.8.3,1.3.5.5.1,1,.3,1.5.5.5.2,1,.4,1.5.6.5.2.9.5,1.3.8.4.3.7.7.9,1.2.2.5.3,1,.3,1.7s-.1,1.5-.4,2.2c-.3.7-.7,1.2-1.3,1.7-.6.5-1.2.9-2.1,1.1-.8.3-1.8.4-2.8.4s-1.1,0-1.7-.2c-.5-.1-1.1-.2-1.6-.4-.5-.2-1-.4-1.4-.6-.4-.2-.8-.5-1.1-.8l.9-1.5c.1-.2.3-.3.4-.4s.4-.1.6-.1.5,0,.7.2c.2.1.5.3.8.4s.6.3,1,.4c.4.1.9.2,1.5.2s.9,0,1.2-.2c.3-.1.6-.3.8-.4.2-.2.4-.4.5-.6.1-.2.2-.5.2-.7,0-.4-.1-.7-.3-.9-.2-.2-.5-.5-.9-.6-.4-.2-.8-.3-1.3-.5s-1-.3-1.5-.5c-.5-.2-1-.4-1.5-.6-.5-.2-.9-.5-1.3-.9-.4-.4-.7-.8-.9-1.3-.2-.5-.3-1.1-.3-1.9s.1-1.3.4-1.9.7-1.1,1.2-1.6c.5-.5,1.2-.8,1.9-1.1.8-.3,1.7-.4,2.7-.4s2.2.2,3.1.6,1.7.9,2.3,1.5l-.9,1.4Z"/>
  </g>
  <g class="st2">
    <path class="st1" d="M187,47h-4.3v-23.1h4.3v23.1Z"/>
    <path class="st1" d="M195,32.6c.3-.3.7-.6,1-.9.4-.3.8-.5,1.2-.7.4-.2.9-.4,1.3-.5.5-.1,1-.2,1.5-.2.9,0,1.7.2,2.4.5.7.3,1.3.7,1.7,1.3s.8,1.2,1.1,2,.4,1.6.4,2.5v10.4h-4v-10.4c0-1-.2-1.8-.7-2.3-.5-.5-1.2-.8-2.1-.8s-1.3.2-1.9.5c-.6.3-1.2.7-1.7,1.3v11.9h-4v-16.4h2.4c.5,0,.8.2,1,.7l.3,1.3Z"/>
    <path class="st1" d="M219.3,33.8c-.1.2-.2.3-.3.4s-.3.1-.4.1-.4,0-.6-.2c-.2-.1-.5-.2-.8-.4s-.6-.3-1-.4c-.4-.1-.8-.2-1.3-.2-.8,0-1.4.2-1.8.5s-.7.8-.7,1.3.1.6.3.9c.2.2.5.5.9.6.4.2.8.3,1.3.5.5.1,1,.3,1.5.5.5.2,1,.4,1.5.6.5.2.9.5,1.3.8.4.3.7.7.9,1.2.2.5.3,1,.3,1.7s-.1,1.5-.4,2.2c-.3.7-.7,1.2-1.3,1.7s-1.2.9-2.1,1.1c-.8.3-1.8.4-2.8.4s-1.1,0-1.7-.2c-.5-.1-1.1-.2-1.6-.4s-1-.4-1.4-.6c-.4-.2-.8-.5-1.1-.8l.9-1.5c.1-.2.3-.3.4-.4.2,0,.4-.1.6-.1s.5,0,.7.2c.2.1.5.3.8.4s.6.3,1,.4c.4.1.9.2,1.5.2s.9,0,1.2-.2c.3-.1.6-.3.8-.4.2-.2.4-.4.5-.6s.2-.5.2-.7c0-.4-.1-.7-.3-.9-.2-.2-.5-.5-.9-.6-.4-.2-.8-.3-1.3-.5s-1-.3-1.5-.5c-.5-.2-1-.4-1.5-.6-.5-.2-.9-.5-1.3-.9-.4-.4-.7-.8-.9-1.3-.2-.5-.3-1.1-.3-1.9s.1-1.3.4-1.9.7-1.1,1.2-1.6c.5-.5,1.2-.8,1.9-1.1s1.7-.4,2.7-.4,2.2.2,3.1.6,1.7.9,2.3,1.5l-.9,1.4Z"/>
    <path class="st1" d="M228,25.8c0,.3,0,.7-.2,1-.1.3-.3.6-.6.8s-.5.4-.8.5c-.3.1-.6.2-1,.2s-.7,0-1-.2c-.3-.1-.6-.3-.8-.5-.2-.2-.4-.5-.5-.8-.1-.3-.2-.6-.2-1s0-.7.2-1c.1-.3.3-.6.5-.8.2-.2.5-.4.8-.5.3-.1.6-.2,1-.2s.7,0,1,.2c.3.1.6.3.8.5.2.2.4.5.6.8s.2.6.2,1ZM227.5,30.6v16.4h-4v-16.4h4Z"/>
    <path class="st1" d="M245.8,23.2v23.8h-2.4c-.5,0-.9-.2-1-.7l-.3-1.6c-.7.8-1.4,1.4-2.3,1.8-.9.5-1.9.7-3,.7s-1.7-.2-2.5-.6c-.7-.4-1.4-.9-1.9-1.6-.5-.7-1-1.6-1.2-2.6-.3-1-.4-2.2-.4-3.6s.2-2.3.5-3.4c.3-1,.8-2,1.4-2.7.6-.8,1.4-1.4,2.2-1.8.9-.4,1.8-.6,2.9-.6s1.7.1,2.4.4c.7.3,1.2.7,1.7,1.2v-8.7h4ZM241.8,34.8c-.4-.5-.9-.9-1.5-1.2-.5-.2-1.1-.3-1.7-.3s-1.1.1-1.6.3c-.5.2-.9.6-1.2,1-.3.5-.6,1-.8,1.7s-.3,1.5-.3,2.5,0,1.8.2,2.4c.2.7.4,1.2.7,1.6.3.4.6.7,1.1.9.4.2.9.3,1.4.3.8,0,1.5-.2,2.1-.5.6-.3,1.1-.8,1.6-1.5v-7.4Z"/>
    <path class="st1" d="M252.7,39.3c0,.8.2,1.6.4,2.2.2.6.5,1.1.9,1.5s.8.7,1.4.9,1.1.3,1.8.3,1.2,0,1.7-.2.9-.3,1.2-.5c.3-.2.7-.3.9-.5.3-.1.5-.2.8-.2s.6.1.7.4l1.1,1.4c-.4.5-.9.9-1.5,1.3-.5.3-1.1.6-1.7.8s-1.2.4-1.8.4c-.6,0-1.2.1-1.8.1-1.1,0-2.2-.2-3.2-.6s-1.8-.9-2.6-1.7c-.7-.7-1.3-1.7-1.7-2.8-.4-1.1-.6-2.4-.6-3.8s.2-2.2.5-3.2c.4-1,.9-1.8,1.6-2.6s1.5-1.3,2.5-1.7c1-.4,2.1-.6,3.3-.6s2,.2,2.9.5c.9.3,1.6.8,2.3,1.4.6.6,1.1,1.4,1.5,2.3.4.9.5,2,.5,3.2s0,1-.2,1.2c-.1.2-.4.3-.7.3h-10.2ZM260.2,36.9c0-.5,0-1-.2-1.4-.1-.5-.4-.9-.6-1.2s-.7-.6-1.1-.8-1-.3-1.5-.3c-1.1,0-2,.3-2.7,1-.7.7-1.1,1.6-1.3,2.8h7.5Z"/>
    <path class="st1" d="M290.3,27.4h-7v19.6h-4.3v-19.6h-7v-3.5h18.3v3.5Z"/>
    <path class="st1" d="M296.4,32.3c.6-.6,1.3-1.1,2.1-1.5.8-.4,1.7-.6,2.7-.6s1.7.2,2.4.5c.7.3,1.3.7,1.7,1.3s.8,1.2,1.1,2c.2.8.4,1.6.4,2.5v10.4h-4v-10.4c0-1-.2-1.8-.7-2.3-.5-.5-1.2-.8-2.1-.8s-1.3.2-1.9.5c-.6.3-1.2.7-1.7,1.3v11.9h-4v-23.8h4v9.1Z"/>
    <path class="st1" d="M313.6,39.3c0,.8.2,1.6.4,2.2.2.6.5,1.1.9,1.5s.8.7,1.4.9c.5.2,1.1.3,1.8.3s1.2,0,1.7-.2c.5-.1.9-.3,1.2-.5.3-.2.7-.3.9-.5.3-.1.5-.2.8-.2s.6.1.7.4l1.1,1.4c-.4.5-.9.9-1.5,1.3-.5.3-1.1.6-1.7.8-.6.2-1.2.4-1.8.4-.6,0-1.2.1-1.8.1-1.1,0-2.2-.2-3.2-.6s-1.8-.9-2.6-1.7-1.3-1.7-1.7-2.8c-.4-1.1-.6-2.4-.6-3.8s.2-2.2.5-3.2c.4-1,.9-1.8,1.6-2.6.7-.7,1.5-1.3,2.5-1.7,1-.4,2.1-.6,3.3-.6s2,.2,2.9.5c.9.3,1.6.8,2.3,1.4.6.6,1.1,1.4,1.5,2.3.4.9.5,2,.5,3.2s0,1-.2,1.2-.4.3-.7.3h-10.2ZM321.1,36.9c0-.5,0-1-.2-1.4-.1-.5-.4-.9-.6-1.2s-.7-.6-1.1-.8c-.4-.2-1-.3-1.5-.3-1.1,0-2,.3-2.7,1-.7.7-1.1,1.6-1.3,2.8h7.5Z"/>
    <path class="st1" d="M340.3,47h-4.3v-23.1h4.3v23.1Z"/>
    <path class="st1" d="M354.5,33.8c-.1.2-.2.3-.3.4s-.3.1-.4.1-.4,0-.6-.2c-.2-.1-.5-.2-.8-.4s-.6-.3-1-.4-.8-.2-1.3-.2c-.8,0-1.4.2-1.8.5-.4.3-.7.8-.7,1.3s.1.6.3.9c.2.2.5.5.9.6.4.2.8.3,1.3.5.5.1,1,.3,1.5.5.5.2,1,.4,1.5.6.5.2.9.5,1.3.8.4.3.7.7.9,1.2.2.5.3,1,.3,1.7s-.1,1.5-.4,2.2c-.3.7-.7,1.2-1.3,1.7-.6.5-1.2.9-2.1,1.1-.8.3-1.8.4-2.8.4s-1.1,0-1.7-.2c-.5-.1-1.1-.2-1.6-.4-.5-.2-1-.4-1.4-.6-.4-.2-.8-.5-1.1-.8l.9-1.5c.1-.2.3-.3.4-.4s.4-.1.6-.1.5,0,.7.2c.2.1.5.3.8.4s.6.3,1,.4c.4.1.9.2,1.5.2s.9,0,1.2-.2c.3-.1.6-.3.8-.4.2-.2.4-.4.5-.6.1-.2.2-.5.2-.7,0-.4-.1-.7-.3-.9-.2-.2-.5-.5-.9-.6-.4-.2-.8-.3-1.3-.5s-1-.3-1.5-.5c-.5-.2-1-.4-1.5-.6-.5-.2-.9-.5-1.3-.9-.4-.4-.7-.8-.9-1.3-.2-.5-.3-1.1-.3-1.9s.1-1.3.4-1.9.7-1.1,1.2-1.6c.5-.5,1.2-.8,1.9-1.1.8-.3,1.7-.4,2.7-.4s2.2.2,3.1.6,1.7.9,2.3,1.5l-.9,1.4Z"/>
    <path class="st1" d="M368.5,33.8c-.1.2-.2.3-.3.4s-.3.1-.4.1-.4,0-.6-.2c-.2-.1-.5-.2-.8-.4s-.6-.3-1-.4-.8-.2-1.3-.2c-.8,0-1.4.2-1.8.5-.4.3-.7.8-.7,1.3s.1.6.3.9c.2.2.5.5.9.6.4.2.8.3,1.3.5.5.1,1,.3,1.5.5.5.2,1,.4,1.5.6.5.2.9.5,1.3.8.4.3.7.7.9,1.2.2.5.3,1,.3,1.7s-.1,1.5-.4,2.2c-.3.7-.7,1.2-1.3,1.7-.6.5-1.2.9-2.1,1.1-.8.3-1.8.4-2.8.4s-1.1,0-1.7-.2c-.5-.1-1.1-.2-1.6-.4-.5-.2-1-.4-1.4-.6-.4-.2-.8-.5-1.1-.8l.9-1.5c.1-.2.3-.3.4-.4s.4-.1.6-.1.5,0,.7.2c.2.1.5.3.8.4s.6.3,1,.4c.4.1.9.2,1.5.2s.9,0,1.2-.2c.3-.1.6-.3.8-.4.2-.2.4-.4.5-.6.1-.2.2-.5.2-.7,0-.4-.1-.7-.3-.9-.2-.2-.5-.5-.9-.6-.4-.2-.8-.3-1.3-.5s-1-.3-1.5-.5c-.5-.2-1-.4-1.5-.6-.5-.2-.9-.5-1.3-.9-.4-.4-.7-.8-.9-1.3-.2-.5-.3-1.1-.3-1.9s.1-1.3.4-1.9.7-1.1,1.2-1.6c.5-.5,1.2-.8,1.9-1.1.8-.3,1.7-.4,2.7-.4s2.2.2,3.1.6,1.7.9,2.3,1.5l-.9,1.4Z"/>
    <path class="st1" d="M386.7,30.6v16.4h-2.4c-.5,0-.9-.2-1-.7l-.3-1.3c-.7.7-1.4,1.2-2.2,1.7-.8.4-1.8.6-2.9.6s-1.7-.2-2.4-.5c-.7-.3-1.3-.7-1.7-1.3s-.8-1.2-1.1-2c-.2-.8-.4-1.6-.4-2.5v-10.4h4v10.4c0,1,.2,1.8.7,2.3.5.5,1.2.8,2.1.8s1.3-.2,1.9-.5c.6-.3,1.2-.7,1.7-1.3v-11.9h4Z"/>
    <path class="st1" d="M393.7,39.3c0,.8.2,1.6.4,2.2.2.6.5,1.1.9,1.5s.8.7,1.4.9c.5.2,1.1.3,1.8.3s1.2,0,1.7-.2c.5-.1.9-.3,1.2-.5.3-.2.7-.3.9-.5.3-.1.5-.2.8-.2s.6.1.7.4l1.1,1.4c-.4.5-.9.9-1.5,1.3-.5.3-1.1.6-1.7.8-.6.2-1.2.4-1.8.4-.6,0-1.2.1-1.8.1-1.1,0-2.2-.2-3.2-.6s-1.8-.9-2.6-1.7-1.3-1.7-1.7-2.8c-.4-1.1-.6-2.4-.6-3.8s.2-2.2.5-3.2c.4-1,.9-1.8,1.6-2.6.7-.7,1.5-1.3,2.5-1.7,1-.4,2.1-.6,3.3-.6s2,.2,2.9.5c.9.3,1.6.8,2.3,1.4.6.6,1.1,1.4,1.5,2.3.4.9.5,2,.5,3.2s0,1-.2,1.2-.4.3-.7.3h-10.2ZM401.2,36.9c0-.5,0-1-.2-1.4-.1-.5-.4-.9-.6-1.2s-.7-.6-1.1-.8c-.4-.2-1-.3-1.5-.3-1.1,0-2,.3-2.7,1-.7.7-1.1,1.6-1.3,2.8h7.5Z"/>
  </g>
</svg>