<svg xmlns="http://www.w3.org/2000/svg" width="29.448" height="29.448" viewBox="0 0 29.448 29.448">
  <g id="Group_49557" data-name="Group 49557" transform="translate(-0.396 0.238)">
    <path id="Path_132" data-name="Path 132" d="M911.724,9266.076h0a14.724,14.724,0,1,1,14.724-14.725,14.725,14.725,0,0,1-14.724,14.725" transform="translate(-896.604 -9236.866)"/>
    <g id="instagram-svgrepo-com" transform="translate(6.396 5.762)">
      <path id="Path_32628" data-name="Path 32628" d="M10.185,14.369A4.185,4.185,0,1,0,6,10.185,4.185,4.185,0,0,0,10.185,14.369Zm0-1.395a2.79,2.79,0,1,0-2.79-2.79A2.79,2.79,0,0,0,10.185,12.974Z" transform="translate(-1.513 -1.513)" fill="#fff" fill-rule="evenodd"/>
      <path id="Path_32629" data-name="Path 32629" d="M17.7,5a.7.7,0,1,0,.7.7A.7.7,0,0,0,17.7,5Z" transform="translate(-4.841 -1.21)" fill="#fff"/>
      <path id="Path_32630" data-name="Path 32630" d="M1.456,3.285C1,4.18,1,5.352,1,7.7V9.648c0,2.344,0,3.515.456,4.411a4.184,4.184,0,0,0,1.829,1.829c.9.456,2.067.456,4.411.456H9.648c2.344,0,3.515,0,4.411-.456a4.184,4.184,0,0,0,1.829-1.829c.456-.9.456-2.067.456-4.411V7.7c0-2.344,0-3.515-.456-4.411a4.184,4.184,0,0,0-1.829-1.829C13.164,1,11.992,1,9.648,1H7.7C5.352,1,4.18,1,3.285,1.456A4.185,4.185,0,0,0,1.456,3.285Zm8.192-.89H7.7c-1.195,0-2.007,0-2.635.052A3.011,3.011,0,0,0,3.918,2.7,2.79,2.79,0,0,0,2.7,3.918a3.011,3.011,0,0,0-.252,1.142C2.4,5.688,2.395,6.5,2.395,7.7V9.648c0,1.195,0,2.007.052,2.635A3.011,3.011,0,0,0,2.7,13.426a2.79,2.79,0,0,0,1.219,1.219,3.01,3.01,0,0,0,1.142.252c.628.051,1.44.052,2.635.052H9.648c1.195,0,2.007,0,2.635-.052a3.01,3.01,0,0,0,1.142-.252,2.79,2.79,0,0,0,1.219-1.219,3.01,3.01,0,0,0,.252-1.142c.051-.628.052-1.44.052-2.635V7.7c0-1.195,0-2.007-.052-2.635a3.01,3.01,0,0,0-.252-1.142A2.79,2.79,0,0,0,13.426,2.7a3.011,3.011,0,0,0-1.142-.252C11.655,2.4,10.843,2.395,9.648,2.395Z" fill="#fff" fill-rule="evenodd"/>
    </g>
  </g>
</svg>
