<svg xmlns="http://www.w3.org/2000/svg" width="29.448" height="29.448" viewBox="0 0 29.448 29.448">
  <g id="Group_7785" data-name="Group 7785" transform="translate(0)">
    <path id="Path_132" data-name="Path 132" d="M911.724,9266.076h0a14.724,14.724,0,1,1,14.724-14.725,14.725,14.725,0,0,1-14.724,14.725" transform="translate(-897 -9236.628)"/>
    <rect id="Rectangle_86" data-name="Rectangle 86" width="3.447" height="10.988" transform="translate(6.758 11.903)" fill="#fff"/>
    <path id="Path_133" data-name="Path 133" d="M925.086,9256.4c-.13-.015-.263-.024-.4-.03a4.024,4.024,0,0,0-3.4,1.555,2.484,2.484,0,0,0-.15.216v-1.471h-3.3v10.988h3.447v-5.163a4.484,4.484,0,0,1,.315-2.219,1.682,1.682,0,0,1,1.533-.859,1.826,1.826,0,0,1,1.948,1.885v6.406h3.446v-7.167c0-2.452-1.246-3.9-3.446-4.141" transform="translate(-905.568 -9244.74)" fill="#fff"/>
    <path id="Path_134" data-name="Path 134" d="M912,9249.634a2,2,0,1,1-2-2,2,2,0,0,1,2,2" transform="translate(-901.525 -9241.152)" fill="#fff"/>
  </g>
</svg>
