<svg xmlns="http://www.w3.org/2000/svg" xmlns:xlink="http://www.w3.org/1999/xlink" width="29.318" height="29.362" viewBox="0 0 29.318 29.362">
  <defs>
    <clipPath id="clip-path">
      <rect id="Rectangle_4957" data-name="Rectangle 4957" width="29.318" height="29.362" fill="none"/>
    </clipPath>
  </defs>
  <g id="Group_26304" data-name="Group 26304" clip-path="url(#clip-path)">
    <path id="Path_20192" data-name="Path 20192" d="M15.57,29.362H13.737a2.059,2.059,0,0,0-.249-.049,14.222,14.222,0,0,1-5.317-1.462A14.588,14.588,0,0,1,.1,12.965,14.12,14.12,0,0,1,5.938,2.913,14.454,14.454,0,0,1,21.977,2a14.325,14.325,0,0,1,7.117,10.165c.1.533.151,1.074.225,1.612v1.833a1.631,1.631,0,0,0-.047.221,14.131,14.131,0,0,1-2.377,6.927,14.463,14.463,0,0,1-9.687,6.375c-.541.1-1.091.153-1.637.227M23.081,23.3l-6.822-9.932,6.277-7.3c-.441,0-.811.013-1.178,0a.577.577,0,0,0-.512.233q-2.008,2.352-4.029,4.693c-.4.467-.8.933-1.217,1.411-.089-.127-.162-.227-.232-.329Q13.382,9.182,11.4,6.29a.445.445,0,0,0-.416-.227c-1.489.009-2.978,0-4.467.006-.079,0-.158.012-.278.022l6.567,9.56L6.228,23.3c.454,0,.841-.01,1.226,0a.5.5,0,0,0,.437-.2q2.038-2.383,4.086-4.757c.49-.57.981-1.139,1.488-1.726.085.121.15.213.214.306q2.115,3.079,4.226,6.16a.441.441,0,0,0,.417.221c1.48-.008,2.959,0,4.439,0Z" transform="translate(0 0)"/>
    <path id="Path_20193" data-name="Path 20193" d="M212.194,207.369h-.32c-1.48,0-2.959,0-4.439,0a.441.441,0,0,1-.417-.221q-2.107-3.084-4.226-6.16c-.064-.093-.129-.185-.214-.306-.506.588-1,1.156-1.488,1.726q-2.045,2.377-4.086,4.757a.5.5,0,0,1-.437.2c-.386-.015-.772,0-1.226,0l6.577-7.648-6.567-9.561c.12-.01.2-.022.278-.022,1.489,0,2.978,0,4.467-.006a.445.445,0,0,1,.416.227q1.978,2.895,3.968,5.782c.07.1.142.2.232.329.413-.479.816-.944,1.218-1.411q2.016-2.345,4.029-4.693a.577.577,0,0,1,.512-.233c.368.018.737,0,1.179,0l-6.277,7.3,6.822,9.932m-2.031-1.062-1.847-2.641q-4.254-6.087-8.511-12.171c-.065-.093-.171-.222-.261-.224-.71-.018-1.42-.01-2.173-.01.08.121.129.2.182.276l3.295,4.715q3.435,4.914,6.873,9.825c.065.093.173.219.264.222.7.018,1.406.01,2.178.01" transform="translate(-189.114 -184.07)" fill="#fff"/>
    <path id="Path_20194" data-name="Path 20194" d="M271.793,240.488c-.772,0-1.475.008-2.178-.01-.091,0-.2-.128-.264-.222q-3.44-4.91-6.873-9.825l-3.295-4.715c-.053-.076-.1-.155-.182-.276.753,0,1.463-.008,2.173.01.09,0,.2.131.26.224q4.259,6.083,8.511,12.171l1.847,2.641" transform="translate(-250.744 -218.25)"/>
  </g>
</svg>
